<svg id="black-back-closed-envelope-shape" xmlns="http://www.w3.org/2000/svg" width="28.293" height="22.231" viewBox="0 0 28.293 22.231">
  <g id="Group_22" data-name="Group 22">
    <path id="Path_30" data-name="Path 30" d="M41.842,332.168a2.418,2.418,0,0,0,1.656-.625l-8.016-8.016-.555.4q-.9.663-1.461,1.034a9.006,9.006,0,0,1-1.492.758,4.548,4.548,0,0,1-1.737.387h-.031a4.547,4.547,0,0,1-1.737-.387,8.978,8.978,0,0,1-1.492-.758q-.561-.371-1.461-1.034c-.167-.123-.353-.257-.553-.4l-8.017,8.018a2.419,2.419,0,0,0,1.656.625Z" transform="translate(-16.076 -309.937)" fill="#08c6f2"/>
    <path id="Path_31" data-name="Path 31" d="M1.595,199.929A8.372,8.372,0,0,1,0,198.555v12.2l7.065-7.065Q4.945,202.206,1.595,199.929Z" transform="translate(0 -191.387)" fill="#08c6f2"/>
    <path id="Path_32" data-name="Path 32" d="M418.793,199.929q-3.226,2.183-5.484,3.76l7.062,7.063v-12.2A8.715,8.715,0,0,1,418.793,199.929Z" transform="translate(-392.078 -191.387)" fill="#08c6f2"/>
    <path id="Path_33" data-name="Path 33" d="M25.773,59.013H2.532a2.255,2.255,0,0,0-1.871.821,3.186,3.186,0,0,0-.655,2.053,3.69,3.69,0,0,0,.868,2.155,7.833,7.833,0,0,0,1.847,1.823q.537.379,3.237,2.25c.972.673,1.817,1.26,2.543,1.767.619.431,1.153.8,1.594,1.115l.236.168.435.314q.513.371.853.6t.821.513a4.79,4.79,0,0,0,.908.426,2.512,2.512,0,0,0,.789.142h.031a2.513,2.513,0,0,0,.789-.142,4.78,4.78,0,0,0,.908-.426q.481-.284.821-.513t.853-.6l.435-.313L18.211,71l1.6-1.11L25.6,65.865a7.51,7.51,0,0,0,1.926-1.942,4.177,4.177,0,0,0,.773-2.384,2.547,2.547,0,0,0-2.526-2.526Z" transform="translate(-0.006 -59.013)" fill="#08c6f2"/>
  </g>
</svg>
