<svg xmlns="http://www.w3.org/2000/svg" width="33.246" height="34" viewBox="0 0 33.246 34">
  <g id="calendar" transform="translate(-5.411 0)">
    <g id="Group_200" data-name="Group 200" transform="translate(5.411)">
      <path id="Path_183" data-name="Path 183" d="M121.271,259.013a.771.771,0,0,0-.772-.771h-2.693a.771.771,0,0,0-.771.771v2.693a.771.771,0,0,0,.771.772H120.5a.771.771,0,0,0,.772-.772v-2.693Z" transform="translate(-109.26 -240.255)" fill="#fff"/>
      <path id="Path_184" data-name="Path 184" d="M217.906,259.013a.771.771,0,0,0-.771-.771h-2.693a.771.771,0,0,0-.771.771v2.693a.771.771,0,0,0,.771.772h2.693a.771.771,0,0,0,.771-.772Z" transform="translate(-199.165 -240.255)" fill="#fff"/>
      <path id="Path_185" data-name="Path 185" d="M314.534,259.013a.771.771,0,0,0-.771-.771H311.07a.771.771,0,0,0-.772.771v2.693a.771.771,0,0,0,.772.772h2.693a.771.771,0,0,0,.771-.772Z" transform="translate(-289.063 -240.255)" fill="#fff"/>
      <path id="Path_186" data-name="Path 186" d="M121.271,355.646a.771.771,0,0,0-.772-.771h-2.693a.771.771,0,0,0-.771.771v2.692a.771.771,0,0,0,.771.771H120.5a.771.771,0,0,0,.772-.771v-2.692Z" transform="translate(-109.26 -330.158)" fill="#fff"/>
      <path id="Path_187" data-name="Path 187" d="M217.906,355.646a.771.771,0,0,0-.771-.771h-2.693a.771.771,0,0,0-.771.771v2.692a.771.771,0,0,0,.771.771h2.693a.771.771,0,0,0,.771-.771Z" transform="translate(-199.165 -330.158)" fill="#fff"/>
      <path id="Path_188" data-name="Path 188" d="M314.534,355.646a.771.771,0,0,0-.771-.771H311.07a.771.771,0,0,0-.772.771v2.692a.771.771,0,0,0,.772.771h2.693a.771.771,0,0,0,.771-.771v-2.692Z" transform="translate(-289.063 -330.158)" fill="#fff"/>
      <path id="Path_189" data-name="Path 189" d="M35.7,54.157V58.27a3.359,3.359,0,0,1-3.367,3.357H30.207A3.376,3.376,0,0,1,26.82,58.27V54.142H17.248V58.27a3.376,3.376,0,0,1-3.387,3.357H11.737A3.359,3.359,0,0,1,8.37,58.27V54.157A3.061,3.061,0,0,0,5.411,57.2v24.1a3.063,3.063,0,0,0,3.048,3.066H35.61a3.066,3.066,0,0,0,3.048-3.066V57.2A3.061,3.061,0,0,0,35.7,54.157ZM34.711,79.8a1.318,1.318,0,0,1-1.318,1.318H10.616A1.318,1.318,0,0,1,9.3,79.8V67.354a1.318,1.318,0,0,1,1.318-1.318H33.394a1.318,1.318,0,0,1,1.318,1.318V79.8Z" transform="translate(-5.411 -50.371)" fill="#fff"/>
      <path id="Path_190" data-name="Path 190" d="M80.7,9.051h2.1A1.154,1.154,0,0,0,83.96,7.9V1.154A1.154,1.154,0,0,0,82.805,0H80.7A1.154,1.154,0,0,0,79.55,1.154V7.9A1.154,1.154,0,0,0,80.7,9.051Z" transform="translate(-74.386)" fill="#fff"/>
      <path id="Path_191" data-name="Path 191" d="M345.613,9.051h2.1A1.154,1.154,0,0,0,348.868,7.9V1.154A1.154,1.154,0,0,0,347.713,0h-2.1a1.154,1.154,0,0,0-1.155,1.154V7.9A1.154,1.154,0,0,0,345.613,9.051Z" transform="translate(-320.843)" fill="#fff"/>
    </g>
  </g>
</svg>
