<svg xmlns="http://www.w3.org/2000/svg" width="35.08" height="35" viewBox="0 0 35.08 35">
  <g id="call-answer" transform="translate(0 0)">
    <g id="Group_135" data-name="Group 135">
      <g id="Group_134" data-name="Group 134">
        <path id="Path_117" data-name="Path 117" d="M34.293,28.077l-5.417-5.418a2.825,2.825,0,0,0-3.983.075l-2.729,2.729-.539-.3a27.161,27.161,0,0,1-6.565-4.748A27.312,27.312,0,0,1,10.3,13.838c-.1-.183-.2-.359-.294-.526l1.832-1.829.9-.9A2.822,2.822,0,0,0,12.813,6.6L7.4,1.18a2.822,2.822,0,0,0-3.983.075L1.886,2.79l.042.041A8.829,8.829,0,0,0,.67,5.051,9.2,9.2,0,0,0,.11,7.3C-.6,13.232,2.1,18.652,9.46,26.007c10.166,10.166,18.359,9.4,18.712,9.36a9.154,9.154,0,0,0,2.257-.567,8.8,8.8,0,0,0,2.211-1.253l.033.03,1.547-1.515A2.827,2.827,0,0,0,34.293,28.077Z" transform="translate(0 -0.394)" fill="#fff"/>
      </g>
    </g>
  </g>
</svg>
