<svg id="close-envelope" xmlns="http://www.w3.org/2000/svg" width="33" height="23.571" viewBox="0 0 33 23.571">
  <g id="Group_133" data-name="Group 133">
    <path id="Path_113" data-name="Path 113" d="M16.071,11.057,11.989,7.484.316,17.49a2.389,2.389,0,0,0,1.629.639H30.2a2.372,2.372,0,0,0,1.622-.639L20.154,7.484Z" transform="translate(0.429 5.443)" fill="#fff"/>
    <path id="Path_114" data-name="Path 114" d="M31.824,2.639A2.374,2.374,0,0,0,30.195,2H1.942a2.364,2.364,0,0,0-1.624.643l15.75,13.5Z" transform="translate(0.432 -2)" fill="#fff"/>
    <path id="Path_115" data-name="Path 115" d="M0,2.878V22.461L11.392,12.78Z" transform="translate(0 -0.808)" fill="#fff"/>
    <path id="Path_116" data-name="Path 116" d="M9.167,12.784l11.392,9.681V2.875Z" transform="translate(12.441 -0.813)" fill="#fff"/>
  </g>
</svg>
