<svg xmlns="http://www.w3.org/2000/svg" width="33.501" height="33.5" viewBox="0 0 33.501 33.5">
  <g id="consultation" transform="translate(0 0)">
    <path id="Path_180" data-name="Path 180" d="M10.187,107.085H8.032v-3.336A4,4,0,0,0,6.9,100.955a4.445,4.445,0,1,0-5.369-.354A4.009,4.009,0,0,0,0,103.749v9.936H6.552v6.551h6.6V110.049a2.968,2.968,0,0,0-2.965-2.965Zm0,0" transform="translate(0 -86.736)" fill="#fff"/>
    <path id="Path_181" data-name="Path 181" d="M322.624,100.6a4.443,4.443,0,1,0-5.369.354,4,4,0,0,0-1.135,2.794v3.336h-2.155A2.968,2.968,0,0,0,311,110.049v10.187h6.6v-6.551h6.551v-9.936a4.009,4.009,0,0,0-1.527-3.148Zm0,0" transform="translate(-290.651 -86.736)" fill="#fff"/>
    <path id="Path_182" data-name="Path 182" d="M172.563,7.96V2.77A2.773,2.773,0,0,0,169.793,0H162.77A2.773,2.773,0,0,0,160,2.77V7.96a2.773,2.773,0,0,0,2.77,2.77h1.189l2.323,4.023L168.6,10.73h1.189a2.773,2.773,0,0,0,2.77-2.77Zm0,0" transform="translate(-149.531)" fill="#fff"/>
  </g>
</svg>
