<svg xmlns="http://www.w3.org/2000/svg" width="57.111" height="73.143" viewBox="0 0 57.111 73.143">
  <g id="doctor" transform="translate(-56.114)">
    <g id="Group_149" data-name="Group 149" transform="translate(76.727 22.903)">
      <g id="Group_148" data-name="Group 148">
        <path id="Path_125" data-name="Path 125" d="M201.477,160.322a1.071,1.071,0,0,0-1.071,1.071v1.145a1.071,1.071,0,0,0,2.143,0v-1.145A1.072,1.072,0,0,0,201.477,160.322Z" transform="translate(-200.406 -160.322)" fill="#fff"/>
      </g>
    </g>
    <g id="Group_151" data-name="Group 151" transform="translate(90.469 22.903)">
      <g id="Group_150" data-name="Group 150">
        <path id="Path_126" data-name="Path 126" d="M297.669,160.322a1.071,1.071,0,0,0-1.071,1.071v1.145a1.071,1.071,0,0,0,2.143,0v-1.145A1.071,1.071,0,0,0,297.669,160.322Z" transform="translate(-296.598 -160.322)" fill="#fff"/>
      </g>
    </g>
    <g id="Group_153" data-name="Group 153" transform="translate(80.162 30.919)">
      <g id="Group_152" data-name="Group 152">
        <path id="Path_127" data-name="Path 127" d="M233.159,216.754a1.071,1.071,0,0,0-1.515-.01,4.722,4.722,0,0,1-5.366,0,1.071,1.071,0,1,0-1.505,1.525,6.759,6.759,0,0,0,8.376,0A1.071,1.071,0,0,0,233.159,216.754Z" transform="translate(-224.454 -216.435)" fill="#fff"/>
      </g>
    </g>
    <g id="Group_155" data-name="Group 155" transform="translate(75.582 19.468)">
      <g id="Group_154" data-name="Group 154">
        <path id="Path_128" data-name="Path 128" d="M195.752,136.274h-2.29a1.071,1.071,0,0,0,0,2.143h2.29a1.071,1.071,0,1,0,0-2.143Z" transform="translate(-192.39 -136.274)" fill="#fff"/>
      </g>
    </g>
    <g id="Group_157" data-name="Group 157" transform="translate(89.324 19.468)">
      <g id="Group_156" data-name="Group 156">
        <path id="Path_129" data-name="Path 129" d="M291.944,136.274h-2.29a1.071,1.071,0,1,0,0,2.143h2.29a1.071,1.071,0,1,0,0-2.143Z" transform="translate(-288.582 -136.274)" fill="#fff"/>
      </g>
    </g>
    <g id="Group_159" data-name="Group 159" transform="translate(56.114)">
      <g id="Group_158" data-name="Group 158" transform="translate(0)">
        <path id="Path_130" data-name="Path 130" d="M107.616,51.034,99.893,48.66a2.457,2.457,0,0,0-1.361-2.347l-4.776-2.388V40.52a15.982,15.982,0,0,0,6.717-10.893h.637a4.06,4.06,0,0,0,4.078-3.533,3.928,3.928,0,0,0-2.27-3.974V10.233A7.951,7.951,0,0,0,94.976,2.29h-.181A13.507,13.507,0,0,0,86.888,0,27.316,27.316,0,0,0,73.561,3.009,46.467,46.467,0,0,1,66.9,5.578a1.071,1.071,0,0,0-.688,1.442,9.721,9.721,0,0,0,1.746,2.539c-.533.656-1.543,2.335-1.543,5.636v6.973a3.908,3.908,0,0,0,1.644,7.459h.8a15.977,15.977,0,0,0,6.717,10.895v3.4l-4.776,2.388a2.457,2.457,0,0,0-1.361,2.347l-7.723,2.374a7.9,7.9,0,0,0-5.608,7.592V72.071a1.071,1.071,0,0,0,2.143,0V58.626a5.77,5.77,0,0,1,4.1-5.543l8.033-2.47L71.8,52.5l-1.611,1.611a3.357,3.357,0,0,0-.63,3.881l3.067,6.134H69.709V62.91a1.071,1.071,0,1,0-2.143,0v1.219H62.911A1.071,1.071,0,0,0,61.84,65.2v6.871a1.071,1.071,0,0,0,1.071,1.071H74.363a1.071,1.071,0,0,0,1.071-1.071V69.739L76.84,72.55a1.071,1.071,0,0,0,1.917-.959L71.479,57.036a1.217,1.217,0,0,1,.228-1.407l2.268-2.268a1.071,1.071,0,0,0,.1-1.4l-2.427-3.236a.331.331,0,0,1,.117-.494l4.22-2.11,2.979,10.214a1.071,1.071,0,1,0,2.057-.6l-.47-1.61a12.537,12.537,0,0,0,8.237,0l-4.118,14.12-2.312-7.928a1.071,1.071,0,1,0-2.057.6l3.341,11.454a1.071,1.071,0,0,0,2.057,0l7.657-26.251,4.22,2.11a.331.331,0,0,1,.117.494L95.264,51.96a1.072,1.072,0,0,0,.1,1.4l2.268,2.268a1.217,1.217,0,0,1,.228,1.407L90.582,71.592a1.072,1.072,0,1,0,1.917.959l7.278-14.556a3.358,3.358,0,0,0-.63-3.881L97.536,52.5l1.418-1.89,8.033,2.47a5.77,5.77,0,0,1,4.1,5.543V72.071a1.071,1.071,0,1,0,2.143,0V58.626A7.9,7.9,0,0,0,107.616,51.034ZM73.291,71H63.983V66.271h3.583v.074a1.071,1.071,0,0,0,2.143,0v-.074h3.583ZM74.445,4.96A25.236,25.236,0,0,1,86.888,2.143c3.953,0,7.485,1.654,8.216,3.848a1.071,1.071,0,1,0,2.033-.678,5.05,5.05,0,0,0-.218-.544,5.809,5.809,0,0,1,3.856,5.464V21.758H99.556a1.22,1.22,0,0,1-1.219-1.219V19.394a13.65,13.65,0,0,0-3.749-8.774,1.073,1.073,0,0,0-1.08-.264C87.56,12.234,79.174,13.817,73,10.694a11.526,11.526,0,0,1-4.177-3.468A52.7,52.7,0,0,0,74.445,4.96ZM91.614,44.434,89.568,51.45a10.395,10.395,0,0,1-9.8,0l-2.047-7.017V41.776a15.935,15.935,0,0,0,13.889,0Zm-6.945-3.209A13.831,13.831,0,0,1,70.854,27.41a1.071,1.071,0,1,0-2.143,0v.074h-.646a1.792,1.792,0,0,1-1.782-1.98,1.9,1.9,0,0,1,1.946-1.6h1.554a3.366,3.366,0,0,0,3.362-3.362V16.5A1.071,1.071,0,0,0,71,16.5v4.044a1.22,1.22,0,0,1-1.219,1.219H68.563V15.195a7.222,7.222,0,0,1,.979-4.172,14.727,14.727,0,0,0,2.321,1.5,20,20,0,0,0,8.59,2.083,40.55,40.55,0,0,0,13.034-2,11.291,11.291,0,0,1,2.707,6.788v1.145A3.366,3.366,0,0,0,99.556,23.9h1.718a1.792,1.792,0,0,1,1.782,1.98,1.9,1.9,0,0,1-1.945,1.6h-.483v-.063a1.071,1.071,0,0,0-1.071-1.071h0a1.071,1.071,0,0,0-1.071,1.071A13.833,13.833,0,0,1,84.669,41.226Z" transform="translate(-56.114)" fill="#fff"/>
      </g>
    </g>
    <g id="Group_161" data-name="Group 161" transform="translate(99.63 61.838)">
      <g id="Group_160" data-name="Group 160">
        <path id="Path_131" data-name="Path 131" d="M367.525,435.734h-1.791v-1.791a1.071,1.071,0,1,0-2.143,0v1.791H361.8a1.071,1.071,0,1,0,0,2.143h1.792v1.791a1.071,1.071,0,1,0,2.143,0v-1.791h1.791a1.071,1.071,0,1,0,0-2.143Z" transform="translate(-360.728 -432.871)" fill="#fff"/>
      </g>
    </g>
  </g>
</svg>
