<svg xmlns="http://www.w3.org/2000/svg" width="46.36" height="30.374" viewBox="0 0 46.36 30.374">
  <g id="egypt" transform="translate(0 -88.276)">
    <path id="Path_27" data-name="Path 27" d="M42.888,88.276H3.472A3.472,3.472,0,0,0,0,91.748V98.4H46.36V91.748A3.472,3.472,0,0,0,42.888,88.276Z" fill="#ff4b55"/>
    <path id="Path_28" data-name="Path 28" d="M0,318.561a3.472,3.472,0,0,0,3.472,3.472H42.888a3.472,3.472,0,0,0,3.472-3.472v-6.653H0Z" transform="translate(0 -203.383)" fill="#464655"/>
    <rect id="Rectangle_5" data-name="Rectangle 5" width="46.36" height="10.124" transform="translate(0 98.4)" fill="#f5f5f5"/>
    <path id="Path_29" data-name="Path 29" d="M232.917,214.28a.581.581,0,0,0-.764-.551l-.707.236-.172-1.036a1.272,1.272,0,0,0-1.259-1.067h-.661l-.691.851h.915l-.256,1.265-.745-.248a.581.581,0,0,0-.764.551v4.3l1.029-1.029L228.357,219h-.544v.851h5.1V219h-.544l-.485-1.454,1.029,1.029v-4.3ZM229.94,219h-.686l.472-1.259.214.274V219Zm.851,0v-.986l.214-.274.472,1.259Zm-.425-1.542a3.127,3.127,0,0,1-1.263-2.552,2.01,2.01,0,0,0,1.263-.851,2.011,2.011,0,0,0,1.263.851A3.127,3.127,0,0,1,230.365,217.462Z" transform="translate(-207.185 -112.396)" fill="#f0c727"/>
  </g>
</svg>
