<svg xmlns="http://www.w3.org/2000/svg" width="102.465" height="157.311" viewBox="0 0 102.465 157.311">
  <g id="employee" transform="translate(-0.219)">
    <path id="Path_192" data-name="Path 192" d="M104.59,347.1v11.025a3.865,3.865,0,0,0,.836,2.4l14.528,18.359a2.582,2.582,0,0,0,4.033.02l14.841-18.37a3.877,3.877,0,0,0,.861-2.434V347.348a38.092,38.092,0,0,1-35.1-.246Zm0,0" transform="translate(-70.687 -235.081)" fill="#f9cfcf"/>
    <path id="Path_193" data-name="Path 193" d="M68.148,394.977q-.842-.127-1.626-.311a17.713,17.713,0,0,1-9.824-6.317L54.2,385.2a3.866,3.866,0,0,1-.74-1.59,26.847,26.847,0,0,0-18.788,10.216h0l-.048.064c-.146.188-.287.378-.427.569-.088.119-.175.237-.261.357-.134.187-.263.377-.392.569-.087.127-.173.256-.257.387q-.183.284-.362.571c-.084.137-.166.276-.248.415q-.168.286-.332.575c-.081.146-.159.294-.238.443-.1.192-.205.383-.3.577-.078.156-.153.315-.228.474-.091.19-.184.379-.27.572s-.163.379-.243.57c-.127.3-.251.611-.367.92-.081.212-.161.422-.237.637-.058.169-.112.34-.168.511-.068.207-.136.412-.2.621-.052.173-.1.347-.147.521-.058.211-.116.421-.17.634q-.064.261-.125.526c-.049.217-.1.435-.142.654-.035.173-.069.348-.1.522-.042.227-.079.455-.116.683-.026.17-.054.34-.077.512-.033.242-.061.484-.088.729-.016.161-.037.322-.052.483-.024.271-.042.545-.058.817-.009.137-.02.274-.026.411-.019.412-.03.826-.03,1.242v5.382h85.2v-5.382c0-.424-.011-.845-.03-1.263-.006-.142-.019-.284-.028-.425-.016-.275-.035-.55-.061-.822-.015-.17-.035-.338-.054-.508-.026-.241-.055-.48-.09-.719-.025-.183-.053-.364-.082-.546-.035-.221-.074-.44-.115-.658-.035-.19-.071-.381-.11-.571s-.088-.4-.135-.6-.092-.4-.144-.6c-.042-.163-.09-.323-.134-.484a26.921,26.921,0,0,0-.857-2.576c-.028-.071-.053-.142-.081-.213-.111-.277-.229-.551-.349-.823-.034-.077-.067-.154-.1-.231-.125-.277-.256-.552-.39-.824l-.091-.182c-.144-.289-.294-.575-.449-.856-.013-.025-.028-.05-.042-.076a26.88,26.88,0,0,0-22.435-13.885l-3.642,4.67a17.82,17.82,0,0,1-16.6,6.784Zm0,0" transform="translate(-19.466 -259.749)" fill="#e0ebfc"/>
    <path id="Path_194" data-name="Path 194" d="M52.959,383.665a26.859,26.859,0,0,0-18.282,10.158h0c-.016.021-.032.044-.048.066-.146.187-.287.377-.427.569-.088.119-.175.236-.261.356-.134.188-.263.377-.392.569-.087.129-.173.257-.257.387q-.183.284-.362.571c-.084.137-.166.276-.248.415q-.168.285-.332.576c-.081.146-.159.294-.238.441-.1.192-.205.383-.3.579-.078.156-.153.315-.228.473-.091.19-.184.379-.27.572s-.163.381-.243.571c-.127.3-.251.611-.367.92-.081.211-.161.422-.237.635-.058.169-.112.342-.168.512-.068.207-.136.412-.2.622-.052.173-.1.347-.147.519-.058.211-.116.421-.17.634-.043.175-.084.351-.125.527-.049.217-.1.435-.142.653-.035.174-.069.348-.1.523-.042.227-.079.454-.116.683-.026.17-.054.339-.077.512-.033.241-.061.484-.088.727-.016.161-.037.321-.052.484-.024.271-.042.543-.058.817-.009.136-.02.272-.026.411-.019.412-.03.824-.03,1.242v5.381h85.2v-5.381c0-.424-.011-.845-.03-1.263-.006-.144-.019-.284-.028-.426-.018-.275-.035-.55-.061-.822-.015-.169-.035-.338-.054-.507-.026-.241-.055-.48-.09-.72-.025-.182-.053-.363-.082-.545-.035-.221-.074-.44-.115-.659-.035-.19-.071-.381-.111-.57s-.088-.4-.134-.6-.093-.4-.144-.605c-.043-.163-.09-.323-.135-.484a27.037,27.037,0,0,0-.856-2.576c-.028-.069-.054-.141-.082-.212-.111-.277-.229-.551-.349-.825l-.1-.231c-.126-.277-.256-.551-.391-.824l-.09-.182c-.145-.289-.294-.574-.449-.856l-.042-.074a26.885,26.885,0,0,0-22.436-13.886l-.049.063h.124L71.032,408.76,53.6,383.587Zm0,0" transform="translate(-19.466 -259.749)" fill="#6bdddd"/>
    <path id="Path_195" data-name="Path 195" d="M29.379,162.509H26.7a10.6,10.6,0,0,1-10.6-10.595V122.553a10.6,10.6,0,0,1,10.6-10.6h2.681a10.6,10.6,0,0,1,10.6,10.6v29.36A10.6,10.6,0,0,1,29.379,162.509Zm0,0" transform="translate(-10.757 -75.825)" fill="#4671c6"/>
    <path id="Path_196" data-name="Path 196" d="M26.674,161.091H23.991a11.9,11.9,0,0,1-11.886-11.886V119.844a11.9,11.9,0,0,1,11.886-11.887h2.683a11.9,11.9,0,0,1,11.886,11.887V149.2a11.9,11.9,0,0,1-11.886,11.887Zm-2.683-50.552a9.315,9.315,0,0,0-9.3,9.3V149.2a9.316,9.316,0,0,0,9.3,9.3h2.681a9.316,9.316,0,0,0,9.3-9.3v-29.36a9.315,9.315,0,0,0-9.3-9.3Zm0,0" transform="translate(-8.05 -73.116)" fill="#3762cc"/>
    <path id="Path_197" data-name="Path 197" d="M240.551,163.458h-2.681a10.6,10.6,0,0,1-10.6-10.6V123.5a10.6,10.6,0,0,1,10.6-10.595h2.681a10.6,10.6,0,0,1,10.6,10.595v29.361A10.6,10.6,0,0,1,240.551,163.458Zm0,0" transform="translate(-153.777 -76.468)" fill="#4671c6"/>
    <path id="Path_198" data-name="Path 198" d="M237.846,162.038h-2.683a11.9,11.9,0,0,1-11.886-11.886V120.792a11.9,11.9,0,0,1,11.886-11.886h2.683a11.9,11.9,0,0,1,11.886,11.886v29.361A11.9,11.9,0,0,1,237.846,162.038Zm-2.683-50.55a9.315,9.315,0,0,0-9.3,9.3v29.361a9.315,9.315,0,0,0,9.3,9.3h2.681a9.315,9.315,0,0,0,9.3-9.3V120.792a9.315,9.315,0,0,0-9.3-9.3Zm0,0" transform="translate(-151.071 -73.759)" fill="#3762cc"/>
    <path id="Path_199" data-name="Path 199" d="M92.483,110.429c-.082,0-.16.01-.241.013v-3.6a38.082,38.082,0,0,0-76.164,0v3.6c-.081,0-.16-.013-.241-.013A11.618,11.618,0,1,0,17.083,133.6a38.078,38.078,0,0,0,74.154,0,11.617,11.617,0,1,0,1.247-23.167Zm0,0" transform="translate(-2.709 -46.57)" fill="#f9cfcf"/>
    <g id="Group_202" data-name="Group 202" transform="translate(0.219 20.901)">
      <path id="Path_200" data-name="Path 200" d="M88.545,208.8a3.872,3.872,0,0,1-3.873-3.873v-6.455a3.873,3.873,0,0,1,7.746,0v6.455A3.873,3.873,0,0,1,88.545,208.8Zm0,0" transform="translate(-57.416 -152.699)" fill="#3762cc"/>
      <path id="Path_201" data-name="Path 201" d="M213.131,208.8a3.872,3.872,0,0,1-3.873-3.873v-6.455a3.873,3.873,0,1,1,7.746,0v6.455A3.873,3.873,0,0,1,213.131,208.8Zm0,0" transform="translate(-141.795 -152.699)" fill="#3762cc"/>
      <path id="Path_202" data-name="Path 202" d="M51.451,161.581a39.183,39.183,0,0,1-38.07-29.336,12.909,12.909,0,0,1-1.3-25.773v-2.337a39.373,39.373,0,0,1,78.746,0v2.337a12.909,12.909,0,0,1-1.3,25.773,39.183,39.183,0,0,1-38.07,29.336ZM14.376,129.6a1.29,1.29,0,0,1,1.256,1,36.788,36.788,0,0,0,71.638,0,1.3,1.3,0,0,1,1.393-.991,10.7,10.7,0,0,0,1.111.062,10.327,10.327,0,0,0,.006-20.655c-.1.006-.165.01-.227.011a1.291,1.291,0,0,1-1.312-1.291v-3.6a36.791,36.791,0,1,0-73.583,0v3.6a1.291,1.291,0,0,1-.385.92,1.321,1.321,0,0,1-.927.371c-.062,0-.122-.005-.184-.009h-.005a10.326,10.326,0,1,0,1.079,20.59,1.3,1.3,0,0,1,.139-.008Zm0,0" transform="translate(-0.219 -64.762)" fill="#3762cc"/>
      <path id="Path_203" data-name="Path 203" d="M139.51,281.833c-5.452,0-9.889-4.008-9.889-8.933a1.291,1.291,0,0,1,2.582,0c0,3.5,3.278,6.351,7.307,6.351s7.307-2.849,7.307-6.351a1.291,1.291,0,0,1,2.582,0C149.4,277.826,144.962,281.833,139.51,281.833Zm0,0" transform="translate(-87.859 -204.853)" fill="#3762cc"/>
      <path id="Path_204" data-name="Path 204" d="M111.457,389.682h-85.2a1.292,1.292,0,0,1-1.291-1.291v-5.382a28,28,0,0,1,24.407-27.926V344.391a1.291,1.291,0,0,1,1.895-1.142,36.839,36.839,0,0,0,17.177,4.26,36.377,36.377,0,0,0,16.729-4.02,1.291,1.291,0,0,1,1.88,1.148v10.3a28.1,28.1,0,0,1,25.7,28.07v5.382A1.292,1.292,0,0,1,111.457,389.682ZM27.547,387.1h82.619v-4.091a25.522,25.522,0,0,0-24.539-25.574,1.291,1.291,0,0,1-1.232-1.428l.073-.683v-8.636a38.928,38.928,0,0,1-16.027,3.4,39.49,39.49,0,0,1-16.49-3.621v8.946a2.533,2.533,0,0,0,.067.541,1.238,1.238,0,0,1,.03.274,1.291,1.291,0,0,1-1.154,1.283c-.028,0-.054.005-.082.006a25.443,25.443,0,0,0-23.267,25.489Zm0,0" transform="translate(-16.979 -253.271)" fill="#3762cc"/>
    </g>
    <path id="Path_205" data-name="Path 205" d="M108.976,45.31H17.32v-11.4A29.908,29.908,0,0,1,47.228,4H79.068a29.907,29.907,0,0,1,29.908,29.908Zm0,0" transform="translate(-11.582 -2.709)" fill="#ffea92"/>
    <path id="Path_206" data-name="Path 206" d="M104.3,132H12.572L10.5,141.771c-.884,4.18,1.557,8.3,4.917,8.3h86.03c3.36,0,5.8-4.121,4.917-8.3Zm0,0" transform="translate(-6.843 -89.4)" fill="#e0ebfc"/>
    <path id="Path_207" data-name="Path 207" d="M98.737,148.652H12.708a5.8,5.8,0,0,1-4.519-2.293,9.1,9.1,0,0,1-1.66-7.567l2.066-9.771A1.292,1.292,0,0,1,9.857,128h91.73a1.291,1.291,0,0,1,1.263,1.025l2.066,9.771a9.1,9.1,0,0,1-1.659,7.567,5.8,5.8,0,0,1-4.521,2.293ZM10.9,130.579l-1.849,8.749a6.589,6.589,0,0,0,1.14,5.406,3.274,3.274,0,0,0,2.515,1.336H98.738a3.271,3.271,0,0,0,2.514-1.336,6.589,6.589,0,0,0,1.14-5.406l-1.849-8.749Zm0,0" transform="translate(-4.129 -86.688)" fill="#3762cc"/>
    <path id="Path_208" data-name="Path 208" d="M121.7,464.689a1.938,1.938,0,0,0-1.678-.969H66.747a1.936,1.936,0,0,0-1.678.969l-3.108,5.394H124.8Zm0,0" transform="translate(-41.817 -314.063)" fill="#4671c6"/>
    <path id="Path_209" data-name="Path 209" d="M144.605,41.472H118.457l3.074-8.721a3.5,3.5,0,0,1,3.265-2.407h13.473a3.5,3.5,0,0,1,3.264,2.407Zm0,0" transform="translate(-80.079 -20.551)" fill="#4671c6"/>
    <path id="Path_210" data-name="Path 210" d="M126.746,43.016l2.017-5.723a1.75,1.75,0,0,1,1.633-1.2h13.472a1.749,1.749,0,0,1,1.631,1.2l2.017,5.723a.363.363,0,0,1-.321.493H127.068A.363.363,0,0,1,126.746,43.016Zm0,0" transform="translate(-85.678 -24.443)" fill="#e0ebfc"/>
    <path id="Path_211" data-name="Path 211" d="M215.144,41.281a1.732,1.732,0,1,0-1.728,1.841A1.786,1.786,0,0,0,215.144,41.281Zm0,0" transform="translate(-143.221 -26.712)" fill="#a4c9ff"/>
    <path id="Path_212" data-name="Path 212" d="M155.18,42.4h-4.613a.6.6,0,0,1-.6-.6V40.521a.6.6,0,0,1,.6-.6h4.613a.6.6,0,0,1,.6.6V41.8A.6.6,0,0,1,155.18,42.4Zm0,0" transform="translate(-101.421 -27.038)" fill="#a4c9ff"/>
    <path id="Path_213" data-name="Path 213" d="M157.946,38.563h-.387a.387.387,0,0,1-.387-.388V36.09h1.162v2.085A.388.388,0,0,1,157.946,38.563Zm0,0" transform="translate(-106.299 -24.443)" fill="#4671c6"/>
    <path id="Path_214" data-name="Path 214" d="M138.714,93.346H106.446a1.017,1.017,0,0,1-1.016-1.017V89.619a1.017,1.017,0,0,1,1.016-1.017h32.268a1.017,1.017,0,0,1,1.017,1.017v2.709A1.017,1.017,0,0,1,138.714,93.346Zm0,0" transform="translate(-71.256 -60.007)" fill="#6bdddd"/>
    <path id="Path_215" data-name="Path 215" d="M120.891,103.3v3.282a1.018,1.018,0,0,0,.986,1.049h2.83a1.019,1.019,0,0,0,.987-1.049V103.3Zm0,0" transform="translate(-81.728 -69.963)" fill="#f9a7a7"/>
    <path id="Path_216" data-name="Path 216" d="M183.008,103.3v3.282a1.018,1.018,0,0,0,.986,1.049h2.831a1.018,1.018,0,0,0,.986-1.049V103.3Zm0,0" transform="translate(-123.797 -69.963)" fill="#f9a7a7"/>
    <path id="Path_217" data-name="Path 217" d="M140.862,72.5a.946.946,0,0,1,.233.03V66.617a1.741,1.741,0,0,0-1.684-1.793H110.239a1.741,1.741,0,0,0-1.684,1.793V72.5Zm0,0" transform="translate(-73.372 -43.903)" fill="#4671c6"/>
    <path id="Path_218" data-name="Path 218" d="M121.955,73.393a3.026,3.026,0,1,1,2.839-3.021A2.936,2.936,0,0,1,121.955,73.393Zm0,0" transform="translate(-80.526 -45.615)" fill="#f9a7a7"/>
    <path id="Path_219" data-name="Path 219" d="M123.754,74.4a2.112,2.112,0,1,1,1.982-2.108A2.05,2.05,0,0,1,123.754,74.4Zm0,0" transform="translate(-82.325 -47.531)" fill="#ffea92"/>
    <path id="Path_220" data-name="Path 220" d="M184.073,73.393a3.026,3.026,0,1,1,2.838-3.021A2.936,2.936,0,0,1,184.073,73.393Zm0,0" transform="translate(-122.596 -45.615)" fill="#f9a7a7"/>
    <path id="Path_221" data-name="Path 221" d="M185.872,74.4a2.112,2.112,0,1,1,1.982-2.108A2.05,2.05,0,0,1,185.872,74.4Zm0,0" transform="translate(-124.395 -47.531)" fill="#ffea92"/>
    <path id="Path_222" data-name="Path 222" d="M151.562,75.017H140.774a.708.708,0,0,1-.707-.708V72.633a.706.706,0,0,1,.707-.707h10.788a.707.707,0,0,1,.707.707v1.675A.708.708,0,0,1,151.562,75.017Zm0,0" transform="translate(-94.715 -48.713)" fill="#f9cfcf"/>
    <path id="Path_223" data-name="Path 223" d="M115.144,37.281a1.732,1.732,0,1,0-1.728,1.841A1.786,1.786,0,0,0,115.144,37.281Zm0,0" transform="translate(-75.494 -24.003)" fill="#a4c9ff"/>
    <path id="Path_224" data-name="Path 224" d="M106.266,43.891H14.611A1.292,1.292,0,0,1,13.32,42.6V31.2A31.236,31.236,0,0,1,44.52,0H76.358a31.234,31.234,0,0,1,31.2,31.2V42.6A1.291,1.291,0,0,1,106.266,43.891ZM15.9,41.31h89.074V31.2A28.649,28.649,0,0,0,76.358,2.582H44.52A28.65,28.65,0,0,0,15.9,31.2Zm0,0" transform="translate(-8.873)" fill="#3762cc"/>
    <path id="Path_225" data-name="Path 225" d="M122.1,468.665H59.256a1.293,1.293,0,0,1-1.119-1.935l3.108-5.394a3.233,3.233,0,0,1,2.8-1.616h53.272a3.24,3.24,0,0,1,2.8,1.616l3.106,5.394a1.291,1.291,0,0,1-1.118,1.935Zm-60.608-2.582h58.375l-1.993-3.459a.649.649,0,0,0-.558-.323H64.041a.646.646,0,0,0-.558.323Zm0,0" transform="translate(-39.11 -311.354)" fill="#3762cc"/>
    <path id="Path_226" data-name="Path 226" d="M68.727,415.179a4.517,4.517,0,0,1-5.233-3.665l-3.923-22.248a1.29,1.29,0,0,1,1.046-1.5l6.356-1.121a1.293,1.293,0,0,1,1.5,1.048l3.923,22.247A4.519,4.519,0,0,1,68.727,415.179Zm0,0" transform="translate(-40.184 -261.853)" fill="#4671c6"/>
    <path id="Path_227" data-name="Path 227" d="M65.233,413.831a5.82,5.82,0,0,1-5.718-4.8l-3.922-22.248a2.586,2.586,0,0,1,2.093-2.992l6.358-1.119a2.585,2.585,0,0,1,2.992,2.093l3.923,22.25a5.816,5.816,0,0,1-4.712,6.729A5.9,5.9,0,0,1,65.233,413.831Zm.788-1.359h.006Zm-1.529-27.259-6.356,1.121,3.922,22.248a3.227,3.227,0,1,0,6.356-1.121Zm0,0" transform="translate(-37.476 -259.145)" fill="#3762cc"/>
    <path id="Path_228" data-name="Path 228" d="M222.82,415.179a4.517,4.517,0,0,0,5.234-3.665l3.923-22.248a1.291,1.291,0,0,0-1.046-1.5l-6.356-1.121a1.292,1.292,0,0,0-1.5,1.048l-3.923,22.247a4.519,4.519,0,0,0,3.665,5.234Zm0,0" transform="translate(-148.232 -261.853)" fill="#4671c6"/>
    <path id="Path_229" data-name="Path 229" d="M220.9,413.829a5.861,5.861,0,0,1-1.01-.088h0a5.809,5.809,0,0,1-4.711-6.731l3.922-22.248a2.589,2.589,0,0,1,2.992-2.094l6.356,1.121a2.583,2.583,0,0,1,2.094,2.992l-3.922,22.248a5.821,5.821,0,0,1-5.72,4.8Zm-.562-2.631a3.227,3.227,0,0,0,3.739-2.618L228,386.332l-6.356-1.121-3.923,22.248a3.228,3.228,0,0,0,2.618,3.739Zm0,0" transform="translate(-145.522 -259.143)" fill="#3762cc"/>
    <path id="Path_230" data-name="Path 230" d="M175.871,400.357l-1.036-1.554a.646.646,0,0,1,.537-1h5.836a1.289,1.289,0,0,0,1.085-.592l6.548-10.186a26.752,26.752,0,0,0-12.056-3.477l-.038.057L159.32,408.773l15.964-6.5a1.292,1.292,0,0,0,.587-1.912Zm0,0" transform="translate(-107.754 -259.762)" fill="#a4c9ff"/>
    <path id="Path_231" data-name="Path 231" d="M156.612,407.357a1.291,1.291,0,0,1-1.063-2.026L173,380.117a1.3,1.3,0,0,1,1.131-.571,28.243,28.243,0,0,1,12.636,3.645,1.292,1.292,0,0,1,.448,1.82L180.669,395.2a2.573,2.573,0,0,1-2.172,1.186h-4.629l.367.551a2.582,2.582,0,0,1-1.174,3.824l-15.964,6.5a1.286,1.286,0,0,1-.485.1Zm18.113-25.188-14.583,21.064,11.946-4.866-1.036-1.554a1.936,1.936,0,0,1,1.612-3.01H178.5l5.793-9.009a25.231,25.231,0,0,0-9.566-2.625Zm0,0" transform="translate(-105.045 -257.055)" fill="#3762cc"/>
    <path id="Path_232" data-name="Path 232" d="M80.418,383.74h0a26.729,26.729,0,0,0-11.66,3.855l6.255,9.731a1.292,1.292,0,0,0,1.087.593h5.834a.645.645,0,0,1,.537,1l-1.036,1.554a1.292,1.292,0,0,0,.587,1.912l15.963,6.5L80.558,383.719Zm0,0" transform="translate(-46.42 -259.881)" fill="#a4c9ff"/>
    <path id="Path_233" data-name="Path 233" d="M95.277,407.472a1.311,1.311,0,0,1-.487-.095l-15.963-6.5a2.584,2.584,0,0,1-1.175-3.824l.367-.551H73.392a2.573,2.573,0,0,1-2.172-1.186l-6.255-9.732a1.291,1.291,0,0,1,.41-1.8,28.226,28.226,0,0,1,12.2-4.038l.077-.013a1.29,1.29,0,0,1,1.263.541l17.427,25.173a1.291,1.291,0,0,1-1.061,2.026Zm-27.411-22.15,5.526,8.6h5.834a1.936,1.936,0,0,1,1.611,3.01L79.8,398.481l11.946,4.867-14.52-20.975a25.227,25.227,0,0,0-9.36,2.949ZM79,381.029h.006Zm0,0" transform="translate(-43.711 -257.17)" fill="#3762cc"/>
    <path id="Path_234" data-name="Path 234" d="M103.5,73.058H99.527a1.017,1.017,0,0,1-1.016-1.017V69.331a1.017,1.017,0,0,1,1.016-1.017h-.008V62.433A1.741,1.741,0,0,1,101.2,60.64h1.512l.359-1.019a3.371,3.371,0,0,0-.79.444c-.016-.025-.03-.052-.048-.077a2.968,2.968,0,0,0-4.315-.706,3.426,3.426,0,0,0-.663,4.593c.016.023.034.043.05.066l-.021.014a3.8,3.8,0,0,0-.74,5.1l-.072.05a3.426,3.426,0,0,0-.663,4.593,2.969,2.969,0,0,0,4.317.7l.067-.058a.085.085,0,0,0,.009.014,3.321,3.321,0,0,0,3.3,1.431Zm0,0" transform="translate(-64.337 -39.719)" fill="#a4c9ff"/>
    <path id="Path_235" data-name="Path 235" d="M208.563,88.6a1.148,1.148,0,0,1,.132.013.88.88,0,0,0-.1-.013Zm0,0" transform="translate(-141.105 -60.007)" fill="#a4c9ff"/>
    <path id="Path_236" data-name="Path 236" d="M183.578,32.856c-.029,0-.058.008-.087.01V32.85a3.61,3.61,0,0,0-2.462-3.318,3.8,3.8,0,0,0-.992-4.427c.019-.024.039-.045.057-.071a3.428,3.428,0,0,0-.541-4.609,2.963,2.963,0,0,0-4.332.575c-.019.024-.033.05-.05.076a.044.044,0,0,0-.011-.01,3.292,3.292,0,0,0-4.813.639,3.7,3.7,0,0,0-.632,1.451h3.269a3.5,3.5,0,0,1,3.264,2.407l3.074,8.723h1.512a1.74,1.74,0,0,1,1.684,1.791v5.911c-.014,0-.032,0-.047-.006a1.01,1.01,0,0,1,.353.16,3.768,3.768,0,0,0,.976-2.724c.029,0,.058,0,.087,0a3.214,3.214,0,0,0,2.93-3.444,3.167,3.167,0,0,0-3.237-3.116Zm0,0" transform="translate(-114.794 -13.364)" fill="#a4c9ff"/>
  </g>
</svg>
