<svg xmlns="http://www.w3.org/2000/svg" width="53.642" height="74.522" viewBox="0 0 53.642 74.522">
  <g id="Group_53" data-name="Group 53" transform="translate(-168.602 -204.75)">
    <path id="Path_53" data-name="Path 53" d="M181,402.594c-.154-.064-.3-.139-.461-.19a2.724,2.724,0,0,1-1.99-2.65c-.019-2.3-.037-4.609.008-6.912.015-.755-.235-.943-.958-.927-2.036.046-4.074.022-6.111.014a2.7,2.7,0,0,1-2.856-2.741q-.063-3.746,0-7.494a2.729,2.729,0,0,1,2.9-2.78c2.086-.006,4.172-.019,6.257.01.569.008.767-.165.761-.74-.024-2.207-.03-4.414,0-6.621.009-.631-.232-.767-.81-.758-2.013.029-4.026.015-6.039.01a2.814,2.814,0,0,1-3.084-2.993q-.033-3.528,0-7.057a2.726,2.726,0,0,1,2.989-2.975c5.675-.007,11.351-.065,17.024.048,1.186.024,2.357,0,3.539-.018,5.723-.072,11.447-.038,17.171-.029a2.721,2.721,0,0,1,2.934,2.953c.013,2.255.024,4.511-.009,6.766-.009.643.2.828.832.816,1.964-.038,3.929.011,5.893-.021a2.956,2.956,0,0,1,3.229,3.177c-.064,2.254-.006,4.511-.018,6.766a2.769,2.769,0,0,1-3.093,3.1c-1.989.016-3.978.024-5.966-.006-.652-.01-.891.188-.879.869.038,2.158.034,4.317,0,6.475-.009.644.215.84.843.83,2.012-.03,4.026-.018,6.039-.008a2.752,2.752,0,0,1,3.053,3.06c.015,2.037-.078,4.079.028,6.11.1,1.973-.5,3.36-2.514,3.913H201.67a1.971,1.971,0,0,0-2.474,0Zm-.948-12.84c2.763,0,5.527-.01,8.29.008.643,0,.886-.2.873-.886-.043-2.132-.033-4.266,0-6.4.008-.611-.161-.873-.814-.872q-8.254.025-16.508,0c-.628,0-.849.219-.84.853.029,2.108.01,4.218.011,6.326,0,.921.038.966.993.968Q176.054,389.761,180.054,389.753ZM200.8,360.072c-2.738,0-5.476.005-8.214,0-.5,0-.812.051-.8.7.037,2.2.024,4.41.01,6.614,0,.562.162.842.783.84q8.25-.021,16.5,0c.6,0,.8-.24.79-.832-.026-2.132-.033-4.265,0-6.4.012-.708-.244-.932-.93-.926C206.227,360.087,203.513,360.072,200.8,360.072Zm.075,29.569c2.69,0,5.381-.012,8.071.009.684.005.939-.228.926-.936q-.058-3.162,0-6.326c.013-.718-.264-.923-.938-.921q-8.107.024-16.215,0c-.7,0-.935.258-.927.937.025,2.084,0,4.169.01,6.253,0,.921.07.985,1,.986Q196.839,389.646,200.875,389.641Zm-20.75-21.33c2.763,0,5.526-.013,8.289.01.59,0,.808-.171.8-.786q-.047-3.271,0-6.543c.008-.617-.231-.795-.813-.794q-8.252.02-16.5,0c-.627,0-.854.21-.845.846.029,2.132.033,4.266,0,6.4-.011.66.18.892.862.883C174.648,368.292,177.386,368.311,180.125,368.311Zm30.563,2.641c-2.763,0-5.526.014-8.289-.011-.605-.005-.8.2-.788.8q.043,3.235,0,6.471c-.009.622.178.856.824.854q8.252-.028,16.505,0c.641,0,.841-.228.833-.853-.028-2.132-.034-4.266,0-6.4.011-.671-.2-.88-.872-.872C216.166,370.97,213.427,370.951,210.688,370.952Zm.009,29.359c2.715,0,5.43-.017,8.144.012.67.007.951-.157.936-.889-.042-2.132-.035-4.266,0-6.4.01-.642-.215-.834-.843-.832q-8.254.028-16.507,0c-.659,0-.821.24-.813.853.029,2.133.035,4.267,0,6.4-.012.674.2.879.871.871C205.219,400.292,207.958,400.31,210.7,400.311Zm-20.633.14c2.741,0,5.482-.012,8.223.01.555,0,.762-.138.752-.735-.036-2.183-.026-4.366-.01-6.549,0-.614-.208-.835-.852-.832q-8.187.035-16.374,0c-.629,0-.857.19-.848.83q.044,3.2,0,6.4c-.01.667.219.889.886.882C184.581,400.434,187.322,400.451,190.064,400.451Zm-.037-29.5c-2.765,0-5.531.011-8.3-.009-.563,0-.777.185-.772.756q.03,3.275,0,6.55c-.006.6.212.813.81.811q8.224-.021,16.447,0c.614,0,.815-.242.812-.815-.012-2.159-.015-4.318,0-6.477.005-.616-.208-.84-.852-.832C195.46,370.97,192.743,370.952,190.026,370.952Z" transform="translate(0 -123.322)" fill="#08c6f2"/>
    <path id="Path_54" data-name="Path 54" d="M202.976,204.75a7.015,7.015,0,0,1,2.794,1.874q1.895,1.754,3.837,3.455a3.116,3.116,0,0,1,1.1,3.314c-.045.184.115.418.183.628.006.02.033.036.054.047a3.111,3.111,0,0,1,1.6,3.543,1.268,1.268,0,0,0,.011.29,2.442,2.442,0,0,0,.074.269c.228-.182.428-.32.6-.486.861-.819,1.707-1.653,2.573-2.466.962-.9,1.943-.633,2.279.646q1.918,7.292,3.8,14.592c.309,1.194-.59,2.016-1.821,1.654-2.458-.723-4.908-1.473-7.362-2.21q-3.438-1.032-6.876-2.06c-1.28-.385-1.524-1.39-.574-2.338,1.442-1.439,2.9-2.862,4.3-4.335a2.067,2.067,0,0,0,.511-1.19c.073-.989.035-1.987.018-2.98a1.9,1.9,0,0,0-1.825-1.55,2.79,2.79,0,0,1-2.411-.729c-1.684-1.535-3.338-3.108-5.081-4.573a3.015,3.015,0,0,1,1.172-5.227,1.514,1.514,0,0,0,.309-.17Zm8.49,18.318-2.9,2.929,10.408,3.118-2.887-10.63-3,2.961c.16.123.379.27.575.445.7.63,1.423,1.246,2.093,1.91a1.165,1.165,0,0,1-.479,2.05A1.746,1.746,0,0,1,214,225.44C213.081,224.669,212.239,223.8,211.466,223.068Zm-9.058-15.92a1.8,1.8,0,0,0-.287.594.852.852,0,0,0,.208.612c1.617,1.526,3.255,3.028,4.884,4.542a.551.551,0,0,0,.878-.014c.343-.341.183-.587-.1-.845q-2.454-2.2-4.9-4.412C202.945,207.5,202.779,207.409,202.408,207.148Z" transform="translate(-25.031)" fill="#08c6f2"/>
  </g>
</svg>
