<svg xmlns="http://www.w3.org/2000/svg" width="86" height="75.095" viewBox="0 0 86 75.095">
  <g id="Group_43" data-name="Group 43" transform="translate(-101.6 -217.925)">
    <path id="Path_40" data-name="Path 40" d="M101.6,250.982c.128-.655.235-1.315.387-1.964a10.9,10.9,0,0,1,10.55-8.379c.72,0,1.44.105,2.241.168.033-.438.08-.791.083-1.145.02-2.3.008-4.6.047-6.892a15.226,15.226,0,0,1,11.782-14.344,20.356,20.356,0,0,1,4.323-.467q13.787-.061,27.573-.013c6.712.024,11.711,2.943,14.719,9.02a13.535,13.535,0,0,1,1.392,6c.01,2.242.005,4.483.012,6.725,0,.328.027.655.045,1.059,1.1,0,2.127-.066,3.145.011a10.9,10.9,0,0,1,9.63,9.474,9.057,9.057,0,0,1-6.692,9.913c-.7.164-.625.577-.625,1.051q0,10.8,0,21.6a5.718,5.718,0,0,1-2.019,4.848,4.8,4.8,0,0,1-3,1.134c-2.746.012-5.492.049-8.237.01-.825-.012-1.1.256-1.017,1.055a13.206,13.206,0,0,1,.007,1.764c-.029.9-.475,1.4-1.217,1.407-.766,0-1.19-.475-1.205-1.387-.012-.7-.022-1.4,0-2.1.017-.492-.163-.742-.673-.718-.2.009-.392,0-.588,0H127.037c-1.256,0-1.256,0-1.258,1.225,0,.56.011,1.121-.006,1.681-.024.813-.422,1.261-1.122,1.3a1.186,1.186,0,0,1-1.292-1.237,13.276,13.276,0,0,1,0-2.016c.065-.738-.195-.975-.937-.964-2.55.036-5.1-.023-7.65.018a5.339,5.339,0,0,1-5.388-5.543c.009-7.286-.008-14.571.019-21.857,0-.765-.159-1.1-.977-1.284a8.88,8.88,0,0,1-6.632-7.419,5.463,5.463,0,0,0-.194-.721Zm43,11.827c6.025,0,12.049-.01,18.074.014.663,0,.869-.189.861-.852-.032-2.605-.041-5.212-.007-7.818.077-5.847,2.829-9.982,8.1-12.445a.934.934,0,0,0,.659-.993c-.025-2.55,0-5.1-.019-7.65a11.941,11.941,0,0,0-1.683-6.073,12.887,12.887,0,0,0-11.778-6.6q-14.038-.042-28.077,0a18.384,18.384,0,0,0-2.918.275A12.831,12.831,0,0,0,117.356,232.6c-.075,2.6-.031,5.21-.106,7.814a1.49,1.49,0,0,0,1,1.573,12.885,12.885,0,0,1,7.507,11.809c.07,2.66.044,5.324,0,7.985-.014.8.193,1.047,1.017,1.042C132.715,262.794,138.655,262.81,144.6,262.81Zm.143,23.566H173.32c.588,0,1.178.009,1.765-.022a2.7,2.7,0,0,0,2.494-1.92,6.845,6.845,0,0,0,.19-1.744q.018-10.382.008-20.764c0-1.465,0-1.465-1.4-1.9a7.227,7.227,0,0,1-4.663-9.116,6.041,6.041,0,0,1,5.6-3.96c.705,0,1.213.262,1.28,1.028a1.083,1.083,0,0,1-1,1.305c-.221.036-.438.093-.659.126a3.6,3.6,0,0,0-3.1,2.886,4.812,4.812,0,0,0,3.326,5.432,6.356,6.356,0,0,0,7.976-6.6,8.493,8.493,0,0,0-10.434-7.826,10.789,10.789,0,0,0-8.762,10.886q-.01,10.129,0,20.259c0,1.506-.378,1.885-1.88,1.885H125.229c-1.5,0-1.882-.384-1.882-1.887,0-6.837.03-13.675-.013-20.511a10.423,10.423,0,0,0-5.472-9.4c-4.864-2.866-10.428-1.382-12.895,3.37a6.9,6.9,0,0,0,1.825,8.829,5.534,5.534,0,0,0,7.755-.711c1.852-2.4,1.04-5.669-1.622-6.485a9.74,9.74,0,0,0-1.231-.244,1.086,1.086,0,0,1-1-1.3c.067-.766.571-1.03,1.277-1.032a6.009,6.009,0,0,1,6,6.165,7.1,7.1,0,0,1-5.221,6.936c-.771.22-.958.6-.955,1.359.03,7.117.018,14.235.018,21.352,0,2.618.988,3.616,3.583,3.616Zm-.186-12.481c6.02,0,12.04-.009,18.06.013.684,0,.93-.19.918-.9-.037-2.3-.031-4.592,0-6.888.008-.641-.178-.887-.853-.886q-18.018.023-36.036,0c-.652,0-.885.194-.875.865.034,2.24.048,4.481-.006,6.719-.02.835.2,1.1,1.071,1.094C132.736,273.877,138.644,273.895,144.552,273.895Z" transform="translate(0 0)" fill="#08c6f2"/>
  </g>
</svg>
