<svg xmlns="http://www.w3.org/2000/svg" width="34" height="25.5" viewBox="0 0 34 25.5">
  <g id="gmail" transform="translate(0 0)">
    <rect id="Rectangle_39" data-name="Rectangle 39" width="25.5" height="25.5" transform="translate(4.25 0)" fill="#eceff1"/>
    <path id="Path_136" data-name="Path 136" d="M256,158.481l12.75,10.068V148.672Z" transform="translate(-239 -143.049)" fill="#cfd8dc"/>
    <path id="Path_137" data-name="Path 137" d="M30.813,64H29.75L17,74.068,4.25,64H3.188A3.189,3.189,0,0,0,0,67.188V86.313A3.189,3.189,0,0,0,3.188,89.5H4.25V69.623L17,79.43l12.75-9.809V89.5h1.063A3.189,3.189,0,0,0,34,86.313V67.188A3.189,3.189,0,0,0,30.813,64Z" transform="translate(0 -64)" fill="#f44336"/>
  </g>
</svg>
