<svg xmlns="http://www.w3.org/2000/svg" width="36.5" height="36.5" viewBox="0 0 36.5 36.5">
  <g id="Group_42" data-name="Group 42" transform="translate(-1658 -14)">
    <rect id="Rectangle_10" data-name="Rectangle 10" width="36.5" height="36.5" rx="18.25" transform="translate(1658 14)" fill="#fff" opacity="0.15"/>
    <g id="instagram" transform="translate(1668.404 24.404)">
      <g id="Group_27" data-name="Group 27" transform="translate(0)">
        <g id="Group_26" data-name="Group 26">
          <path id="Path_36" data-name="Path 36" d="M10.894,0H4.952A4.952,4.952,0,0,0,0,4.952v5.942a4.952,4.952,0,0,0,4.952,4.952h5.942a4.952,4.952,0,0,0,4.952-4.952V4.952A4.952,4.952,0,0,0,10.894,0ZM14.36,10.894a3.47,3.47,0,0,1-3.466,3.466H4.952a3.47,3.47,0,0,1-3.466-3.466V4.952A3.47,3.47,0,0,1,4.952,1.486h5.942A3.47,3.47,0,0,1,14.36,4.952Z" transform="translate(0)" fill="#08c6f2"/>
        </g>
      </g>
      <g id="Group_29" data-name="Group 29" transform="translate(3.961 3.961)">
        <g id="Group_28" data-name="Group 28">
          <path id="Path_37" data-name="Path 37" d="M131.961,128a3.961,3.961,0,1,0,3.961,3.961A3.962,3.962,0,0,0,131.961,128Zm0,6.437a2.476,2.476,0,1,1,2.476-2.476A2.479,2.479,0,0,1,131.961,134.437Z" transform="translate(-128 -128)" fill="#08c6f2"/>
        </g>
      </g>
      <g id="Group_31" data-name="Group 31" transform="translate(11.654 3.136)">
        <g id="Group_30" data-name="Group 30">
          <ellipse id="Ellipse_7" data-name="Ellipse 7" cx="0.528" cy="0.528" rx="0.528" ry="0.528" fill="#08c6f2"/>
        </g>
      </g>
    </g>
  </g>
</svg>
