<svg xmlns="http://www.w3.org/2000/svg" width="32.454" height="34.572" viewBox="0 0 32.454 34.572">
  <g id="key-tool" transform="translate(0)">
    <path id="Path_98" data-name="Path 98" d="M28.462,26.06l-2.451-2.451,8.435-8.435a8.089,8.089,0,1,0-3.267-3.267L14.573,28.515a2.31,2.31,0,0,0,3.268,3.268l2.451,2.451a1.155,1.155,0,0,0,1.634,0L23.559,32.6a1.153,1.153,0,0,0,0-1.634l-2.451-2.451,1.634-1.639,2.452,2.456a1.155,1.155,0,0,0,1.634,0L28.462,27.7A1.161,1.161,0,0,0,28.462,26.06ZM35.813,5.637a3.468,3.468,0,1,1,0,4.9A3.471,3.471,0,0,1,35.813,5.637Z" transform="translate(-13.899 0)" fill="#fff"/>
  </g>
</svg>
