<svg xmlns="http://www.w3.org/2000/svg" width="36.5" height="36.5" viewBox="0 0 36.5 36.5">
  <g id="Group_40" data-name="Group 40" transform="translate(-1703 -14)">
    <rect id="Rectangle_9" data-name="Rectangle 9" width="36.5" height="36.5" rx="18.25" transform="translate(1703 14)" fill="#fff" opacity="0.15"/>
    <g id="linkedin" transform="translate(1713 24)">
      <g id="Group_33" data-name="Group 33" transform="translate(0 5.108)">
        <g id="Group_32" data-name="Group 32">
          <rect id="Rectangle_7" data-name="Rectangle 7" width="3.655" height="11.238" fill="#08c6f2"/>
        </g>
      </g>
      <g id="Group_35" data-name="Group 35" transform="translate(5.108 5.108)">
        <g id="Group_34" data-name="Group 34">
          <path id="Path_38" data-name="Path 38" d="M168.5,160.132c-.039-.012-.076-.026-.116-.037s-.1-.02-.148-.029a3.276,3.276,0,0,0-.656-.066,5.079,5.079,0,0,0-3.928,2.148V160H160v11.238h3.655v-6.13s2.762-3.847,3.928-1.022v7.151h3.654v-7.583A3.645,3.645,0,0,0,168.5,160.132Z" transform="translate(-160 -160)" fill="#08c6f2"/>
        </g>
      </g>
      <g id="Group_37" data-name="Group 37">
        <g id="Group_36" data-name="Group 36">
          <ellipse id="Ellipse_8" data-name="Ellipse 8" cx="1.788" cy="1.788" rx="1.788" ry="1.788" fill="#08c6f2"/>
        </g>
      </g>
    </g>
  </g>
</svg>
