<svg id="male-user" xmlns="http://www.w3.org/2000/svg" width="24" height="36.094" viewBox="0 0 24 36.094">
  <path id="Path_99" data-name="Path 99" d="M134.836,14.627a7.314,7.314,0,1,0-7.312-7.31A7.314,7.314,0,0,0,134.836,14.627Z" transform="translate(-122.835)" fill="#fff"/>
  <path id="Path_100" data-name="Path 100" d="M73,212.448l-1.129,4.893a1.56,1.56,0,0,0,1.591,2H94.181a1.56,1.56,0,0,0,1.591-2l-1.129-4.893c-.255-1.105-.441-2.928-.662-4.04a10.361,10.361,0,0,0-20.313,0C73.445,209.519,73.259,211.342,73,212.448Z" transform="translate(-71.824 -183.247)" fill="#fff"/>
</svg>
