<svg xmlns="http://www.w3.org/2000/svg" width="28.478" height="34.333" viewBox="0 0 28.478 34.333">
  <g id="money-bag-with-dollar-symbol" transform="translate(-36.239)">
    <g id="Group_199" data-name="Group 199" transform="translate(36.238 0)">
      <g id="Group_192" data-name="Group 192" transform="translate(14.956 22.064)">
        <path id="Path_173" data-name="Path 173" d="M222.979,273.851a1.632,1.632,0,0,0-.458-.333,5.526,5.526,0,0,0-1.161-.41v3.071a2.181,2.181,0,0,0,1.72-.907h0a1.4,1.4,0,0,0,.128-.959A.965.965,0,0,0,222.979,273.851Z" transform="translate(-221.36 -273.108)" fill="#fff"/>
      </g>
      <g id="Group_193" data-name="Group 193" transform="translate(16.672 24.228)">
        <path id="Path_174" data-name="Path 174" d="M242.6,299.906l0-.006h0Z" transform="translate(-242.604 -299.9)" fill="#fff"/>
      </g>
      <g id="Group_194" data-name="Group 194" transform="translate(11.731 17.136)">
        <path id="Path_175" data-name="Path 175" d="M181.649,212.868a1.152,1.152,0,0,0-.2.54,1.3,1.3,0,0,0,.066.6.957.957,0,0,0,.372.409,2.9,2.9,0,0,0,.552.285c.161.065.342.127.538.187v-2.779A2.121,2.121,0,0,0,181.649,212.868Z" transform="translate(-181.441 -212.106)" fill="#fff"/>
      </g>
      <g id="Group_195" data-name="Group 195" transform="translate(16.675 24.206)">
        <path id="Path_176" data-name="Path 176" d="M242.66,299.619l-.013.023h0Z" transform="translate(-242.647 -299.619)" fill="#fff"/>
      </g>
      <g id="Group_196" data-name="Group 196" transform="translate(16.704 24.175)">
        <path id="Path_177" data-name="Path 177" d="M243,299.246Z" transform="translate(-243.004 -299.244)" fill="#fff"/>
      </g>
      <g id="Group_197" data-name="Group 197">
        <path id="Path_178" data-name="Path 178" d="M52.276,7.471C54.888,5.277,56.633.334,55.559.117c-1.427-.287-4.526.973-6.024,1.195C47.411,1.569,45.1-.992,43.8.436c-1.056,1.16.757,5.38,3.594,7.218-8.463,4.159-20.358,25.039.394,26.554C76.5,36.3,62.121,11.524,52.276,7.471Zm2.466,16.467a3.019,3.019,0,0,1-1.165,2.05,4.451,4.451,0,0,1-2.383.842v.9a.844.844,0,1,1-1.689,0v-.983c-.146-.028-.29-.061-.433-.1a4.146,4.146,0,0,1-2.066-1.271,3.724,3.724,0,0,1-.637-1.052c-.039-.1-.075-.2-.105-.306a1.568,1.568,0,0,1-.067-.286.844.844,0,0,1,1.642-.351c.032.1.054.2.09.293a1.883,1.883,0,0,0,.13.277,2.153,2.153,0,0,0,.371.475,2.514,2.514,0,0,0,1.075.586V21.67a6.011,6.011,0,0,1-2.214-.957,2.577,2.577,0,0,1-.748-.9,2.811,2.811,0,0,1-.261-1.209,2.881,2.881,0,0,1,.253-1.224,2.985,2.985,0,0,1,.693-.951A4.23,4.23,0,0,1,49.5,15.421v-.934a.844.844,0,1,1,1.689,0v.929q.166.021.33.05a4.171,4.171,0,0,1,2.205,1.07,3.222,3.222,0,0,1,.675.97,3.093,3.093,0,0,1,.119.309,1.877,1.877,0,0,1,.079.3.845.845,0,0,1-1.624.427c-.035-.092-.053-.19-.089-.282A1.487,1.487,0,0,0,52.752,18a1.611,1.611,0,0,0-.4-.418,2.738,2.738,0,0,0-1.159-.453v3.2a10.722,10.722,0,0,1,1.443.428,3.372,3.372,0,0,1,1.76,1.378c-.06-.1-.118-.207,0,0s.062.108,0,0A3.013,3.013,0,0,1,54.742,23.937Z" transform="translate(-36.238 0)" fill="#fff"/>
      </g>
      <g id="Group_198" data-name="Group 198" transform="translate(16.65 24.25)">
        <path id="Path_179" data-name="Path 179" d="M242.35,300.169l-.013.022Z" transform="translate(-242.337 -300.169)" fill="#fff"/>
      </g>
    </g>
  </g>
</svg>
