<svg xmlns="http://www.w3.org/2000/svg" width="86.72" height="73.143" viewBox="0 0 86.72 73.143">
  <g id="online-shop" transform="translate(0 -40.081)">
    <g id="Group_164" data-name="Group 164" transform="translate(0 40.081)">
      <g id="Group_163" data-name="Group 163">
        <path id="Path_132" data-name="Path 132" d="M81.377,40.081H5.344A5.349,5.349,0,0,0,0,45.424V97.019a5.349,5.349,0,0,0,5.344,5.343H31.059l-1.04,8.321H25.71a1.27,1.27,0,0,0,0,2.541h35.3a1.27,1.27,0,0,0,0-2.541H56.7l-1.04-8.321H81.377a5.35,5.35,0,0,0,5.344-5.343V45.424A5.349,5.349,0,0,0,81.377,40.081Zm-48.8,70.6,1.04-8.321H38.3l.459,1.834a4.748,4.748,0,0,0,9.213,0l.459-1.834H53.1l1.04,8.321Zm8.334-8.321h4.892l-.3,1.218a2.208,2.208,0,0,1-4.284,0ZM84.18,97.019h0a2.806,2.806,0,0,1-2.8,2.8H5.344a2.806,2.806,0,0,1-2.8-2.8V45.424a2.806,2.806,0,0,1,2.8-2.8H81.377a2.806,2.806,0,0,1,2.8,2.8V97.019Z" transform="translate(0 -40.081)" fill="#fff"/>
      </g>
    </g>
    <g id="Group_166" data-name="Group 166" transform="translate(5.431 45.512)">
      <g id="Group_165" data-name="Group 165">
        <path id="Path_133" data-name="Path 133" d="M98.506,72.146H33.334a1.27,1.27,0,0,0-1.27,1.27v48.878a1.27,1.27,0,0,0,1.27,1.27H36.05a1.27,1.27,0,0,0,0-2.541H34.6V74.687h63.9a1.27,1.27,0,0,0,0-2.541Z" transform="translate(-32.064 -72.146)" fill="#fff"/>
      </g>
    </g>
    <g id="Group_168" data-name="Group 168" transform="translate(13.577 45.512)">
      <g id="Group_167" data-name="Group 167">
        <path id="Path_134" data-name="Path 134" d="M146.6,72.146h-2.716a1.27,1.27,0,0,0,0,2.541h1.445v46.338h-63.9a1.27,1.27,0,0,0,0,2.541H146.6a1.27,1.27,0,0,0,1.27-1.27V73.416A1.27,1.27,0,0,0,146.6,72.146Z" transform="translate(-80.162 -72.146)" fill="#fff"/>
      </g>
    </g>
    <g id="Group_170" data-name="Group 170" transform="translate(23.082 53.658)">
      <g id="Group_169" data-name="Group 169">
        <path id="Path_135" data-name="Path 135" d="M173.848,126.16a1.27,1.27,0,0,0-.943-.486l-29.87-1.358h-.07a2.632,2.632,0,0,0-1.056-1.421l-3.658-2.439a1.27,1.27,0,0,0-1.409,2.114l3.658,2.438a.088.088,0,0,1,.036.049l4.659,16.308a4,4,0,0,0,.692,1.36l-1.7,3.41a2.611,2.611,0,0,0,.115,2.557,2.638,2.638,0,0,0,.652.717,3.986,3.986,0,1,0,7.174.529H163.7a3.986,3.986,0,1,0,7.281-.33,1.269,1.269,0,0,0-.852-2.211h-23.6a.087.087,0,0,1-.078-.127l1.57-3.141a3.988,3.988,0,0,0,.993.127,4.1,4.1,0,0,0,.475-.028l17.85-2.1a5.331,5.331,0,0,0,4.615-4.259l2.135-10.676A1.27,1.27,0,0,0,173.848,126.16Zm-6.431,23.777a1.445,1.445,0,1,1-1.445,1.445A1.447,1.447,0,0,1,167.416,149.937Zm-19.008,0a1.445,1.445,0,1,1-1.445,1.445A1.447,1.447,0,0,1,148.408,149.937Zm-3.115-17.476-1.592-5.572,5.079.231.881,5.341Zm3.9,9.243a1.439,1.439,0,0,1-1.558-1.038L146.019,135h4.06l1.067,6.473Zm7.446-.876-2.97.349L152.654,135h3.988Zm0-8.367h-4.407l-.861-5.223,5.268.24Zm6.433,7.61-3.893.458V135h4.351Zm.689-7.61h-4.581v-4.868l5,.227Zm5.7,4.909a2.8,2.8,0,0,1-2.421,2.234l-1.392.164.431-4.766h3.855Zm.982-4.909h-4.133l.41-4.525,4.587.208Z" transform="translate(-136.276 -120.241)" fill="#fff"/>
      </g>
    </g>
  </g>
</svg>
