<svg id="online-shop_1_" data-name="online-shop (1)" xmlns="http://www.w3.org/2000/svg" width="157.312" height="157.311" viewBox="0 0 157.312 157.311">
  <path id="Path_240" data-name="Path 240" d="M150.757,78.367H6.555A6.574,6.574,0,0,0,0,84.922v97.664a6.574,6.574,0,0,0,6.555,6.555h144.2a6.574,6.574,0,0,0,6.555-6.555V84.922A6.574,6.574,0,0,0,150.757,78.367Z" transform="translate(0 -53.787)" fill="#40596b"/>
  <rect id="Rectangle_42" data-name="Rectangle 42" width="137.647" height="90.782" transform="translate(9.832 34.412)" fill="#fff"/>
  <rect id="Rectangle_43" data-name="Rectangle 43" width="59.975" height="17.698" transform="translate(48.504 135.353)" fill="#cdd6e0"/>
  <rect id="Rectangle_44" data-name="Rectangle 44" width="96.353" height="4.261" transform="translate(30.479 153.051)" fill="#f2f2f2"/>
  <rect id="Rectangle_45" data-name="Rectangle 45" width="59.975" height="4.916" transform="translate(48.504 135.353)" fill="#acb3ba"/>
  <path id="Path_241" data-name="Path 241" d="M182.3,117.029v83.244a5.176,5.176,0,0,1-5.244,5.244H73.163a5.176,5.176,0,0,1-5.244-5.244V117.029Z" transform="translate(-46.616 -80.323)" fill="#f2f2f2"/>
  <g id="Group_212" data-name="Group 212" transform="translate(48.832 59.975)">
    <path id="Path_242" data-name="Path 242" d="M250,191.216V203.67h-1.311V191.216Z" transform="translate(-219.517 -191.216)" fill="#fff"/>
    <path id="Path_243" data-name="Path 243" d="M250,343.771v12.454h-1.311V343.771H250Z" transform="translate(-219.517 -295.922)" fill="#fff"/>
    <path id="Path_244" data-name="Path 244" d="M298.224,218.321l-8.849,8.849-.983-.983,8.849-8.849Z" transform="translate(-246.77 -209.145)" fill="#fff"/>
    <path id="Path_245" data-name="Path 245" d="M190.6,326.991l-8.849,8.849-.983-.983,8.849-8.849Z" transform="translate(-172.902 -283.731)" fill="#fff"/>
    <path id="Path_246" data-name="Path 246" d="M320.371,285.257v1.311H308.245v-1.311Z" transform="translate(-260.396 -255.761)" fill="#fff"/>
    <path id="Path_247" data-name="Path 247" d="M167.816,285.913v.656H155.69v-1.311h12.126Z" transform="translate(-155.69 -255.761)" fill="#fff"/>
    <path id="Path_248" data-name="Path 248" d="M298.941,334.53l-.983.983-8.521-8.521.983-.983Z" transform="translate(-247.487 -283.731)" fill="#fff"/>
    <path id="Path_249" data-name="Path 249" d="M190.6,226.188l-.983.983-8.849-8.849.983-.983Z" transform="translate(-172.902 -209.146)" fill="#fff"/>
    <path id="Path_250" data-name="Path 250" d="M221.6,219c-.328,0-.656.328-1.311.656l-2.95-6.882,1.311-.656Z" transform="translate(-198.002 -205.559)" fill="#fff"/>
    <path id="Path_251" data-name="Path 251" d="M273.844,346.474l-1.311.656-2.95-6.882c.328,0,.656-.328,1.311-.656Z" transform="translate(-233.861 -293.054)" fill="#fff"/>
    <path id="Path_252" data-name="Path 252" d="M183.081,256.86c-.328.328-.328.656-.656,1.311l-6.882-2.95.656-1.311Z" transform="translate(-169.316 -234.246)" fill="#fff"/>
    <path id="Path_253" data-name="Path 253" d="M309.513,310.15l-.656,1.311-6.882-2.95c.328-.328.328-.656.656-1.311Z" transform="translate(-256.093 -270.822)" fill="#fff"/>
    <path id="Path_254" data-name="Path 254" d="M183.081,307.466l-6.882,2.95-.656-1.311,6.882-2.95C182.753,306.811,182.753,307.138,183.081,307.466Z" transform="translate(-169.316 -270.104)" fill="#fff"/>
    <path id="Path_255" data-name="Path 255" d="M309.513,255.221l-6.882,2.95c0-.328-.328-.656-.656-1.311l6.882-2.95Z" transform="translate(-256.093 -234.246)" fill="#fff"/>
    <path id="Path_256" data-name="Path 256" d="M221.6,339.2l-2.95,6.882-1.311-.656,2.95-6.882C220.943,338.875,221.271,338.875,221.6,339.2Z" transform="translate(-198.002 -292.337)" fill="#fff"/>
    <path id="Path_257" data-name="Path 257" d="M274.561,211.725l-2.622,6.882c-.328-.328-.656-.328-1.311-.656l2.95-6.882Z" transform="translate(-234.578 -204.842)" fill="#fff"/>
  </g>
  <path id="Path_258" data-name="Path 258" d="M176.459,0H75.518a6.574,6.574,0,0,0-6.555,6.555V23.6H183.341V6.555A7.094,7.094,0,0,0,176.459,0Z" transform="translate(-47.333 0)" fill="#ffd15c"/>
  <path id="Path_259" data-name="Path 259" d="M324.963,273.763l6.227,22.286,5.572-5.571,5.244,5.571,4.916-4.916-5.244-5.571,5.244-5.572Z" transform="translate(-223.039 -187.897)" fill="#40596b"/>
  <circle id="Ellipse_17" data-name="Ellipse 17" cx="3.933" cy="3.933" r="3.933" transform="translate(60.63 7.865)" fill="#f8b64c"/>
  <circle id="Ellipse_18" data-name="Ellipse 18" cx="3.933" cy="3.933" r="3.933" transform="translate(45.555 7.865)" fill="#ff7058"/>
  <circle id="Ellipse_19" data-name="Ellipse 19" cx="3.933" cy="3.933" r="3.933" transform="translate(30.479 7.865)" fill="#f8b64c"/>
  <path id="Path_260" data-name="Path 260" d="M183.015,125.388v15.4a11.17,11.17,0,0,1-7.21,2.294,12.448,12.448,0,0,1-12.454-12.454,12.454,12.454,0,0,1-24.908,0,12.454,12.454,0,0,1-24.908,0,12.454,12.454,0,1,1-24.908,0,12.448,12.448,0,0,1-12.454,12.454,13.447,13.447,0,0,1-7.21-2.294v-15.4Z" transform="translate(-47.334 -86.06)" fill="#e4eaef"/>
  <path id="Path_261" data-name="Path 261" d="M77.153,88.342H52.245l5.244-13.109H80.1Z" transform="translate(-35.858 -51.636)" fill="#ff7058"/>
  <path id="Path_262" data-name="Path 262" d="M156.565,88.342H131.657l2.95-13.109h22.941Z" transform="translate(-90.363 -51.636)" fill="#cdd6e0"/>
  <path id="Path_263" data-name="Path 263" d="M235.977,88.342H211.069l.983-13.109h22.941Z" transform="translate(-144.867 -51.636)" fill="#ff7058"/>
  <path id="Path_264" data-name="Path 264" d="M313.238,88.342H288.33l-.983-13.109h22.941Z" transform="translate(-197.221 -51.636)" fill="#cdd6e0"/>
  <path id="Path_265" data-name="Path 265" d="M388.347,88.342H363.44l-2.95-13.109H383.1Z" transform="translate(-247.422 -51.636)" fill="#ff7058"/>
  <g id="Group_213" data-name="Group 213" transform="translate(41.294 36.706)">
    <path id="Path_266" data-name="Path 266" d="M131.657,122.6a12.454,12.454,0,0,0,24.908,0v-5.571H131.657V122.6Z" transform="translate(-131.657 -117.029)" fill="#acb3ba"/>
    <path id="Path_267" data-name="Path 267" d="M290.482,117.029V122.6a12.454,12.454,0,0,0,24.908,0v-5.571Z" transform="translate(-240.667 -117.029)" fill="#acb3ba"/>
  </g>
  <g id="Group_214" data-name="Group 214" transform="translate(16.387 36.706)">
    <path id="Path_268" data-name="Path 268" d="M52.245,122.6a12.454,12.454,0,0,0,24.908,0v-5.571H52.245Z" transform="translate(-52.245 -117.029)" fill="#f1543f"/>
    <path id="Path_269" data-name="Path 269" d="M211.069,122.6a12.454,12.454,0,1,0,24.908,0v-5.571H211.069V122.6Z" transform="translate(-161.254 -117.029)" fill="#f1543f"/>
    <path id="Path_270" data-name="Path 270" d="M369.894,117.029V122.6a12.454,12.454,0,1,0,24.908,0v-5.571Z" transform="translate(-270.264 -117.029)" fill="#f1543f"/>
  </g>
  <ellipse id="Ellipse_20" data-name="Ellipse 20" cx="19.336" cy="19.664" rx="19.336" ry="19.664" transform="translate(59.32 70.462)" fill="#ff7058"/>
  <g id="Group_215" data-name="Group 215" transform="translate(65.546 78)">
    <path id="Path_271" data-name="Path 271" d="M218.812,266.711l-.656-2.294h15.076v-11.47H215.207l-.983-4.261H208.98v1.966h3.933l4.588,18.025h16.387v-1.966Zm12.454-12.126v7.538H217.829l-1.966-7.538Z" transform="translate(-208.98 -248.686)" fill="#fff"/>
    <circle id="Ellipse_21" data-name="Ellipse 21" cx="2.294" cy="2.294" r="2.294" transform="translate(10.488 21.302)" fill="#fff"/>
    <circle id="Ellipse_22" data-name="Ellipse 22" cx="2.294" cy="2.294" r="2.294" transform="translate(19.008 21.302)" fill="#fff"/>
  </g>
</svg>
