<svg xmlns="http://www.w3.org/2000/svg" width="135.843" height="157.311" viewBox="0 0 135.843 157.311">
  <g id="pills_1_" data-name="pills (1)" transform="translate(-34.937 0)">
    <circle id="Ellipse_12" data-name="Ellipse 12" cx="4.85" cy="4.85" r="4.85" transform="translate(98.697 126.413)" fill="#7fdbd5"/>
    <g id="Group_178" data-name="Group 178" transform="translate(104.938 105.5)">
      <circle id="Ellipse_13" data-name="Ellipse 13" cx="4.615" cy="4.615" r="4.615" transform="translate(14.309 26.712)" fill="#38648c"/>
      <circle id="Ellipse_14" data-name="Ellipse 14" cx="4.615" cy="4.615" r="4.615" fill="#38648c"/>
    </g>
    <circle id="Ellipse_15" data-name="Ellipse 15" cx="5.816" cy="5.816" r="5.816" transform="translate(121.539 112.908)" fill="#7fdbd5"/>
    <circle id="Ellipse_16" data-name="Ellipse 16" cx="6.231" cy="6.231" r="6.231" transform="translate(103.323 144.85)" fill="#f28b74"/>
    <path id="Path_162" data-name="Path 162" d="M146.666,72.573l-21.109,18.8L152.3,121.4l21.109-18.8a20.105,20.105,0,0,0,1.644-28.386h0A20.105,20.105,0,0,0,146.666,72.573Z" transform="translate(-62.777 -46.749)" fill="#7fdbd5"/>
    <path id="Path_163" data-name="Path 163" d="M41.671,164.03l21.109-18.8,26.742,30.029-21.109,18.8a20.105,20.105,0,0,1-28.386-1.644h0A20.105,20.105,0,0,1,41.671,164.03Z" transform="translate(0 -100.61)" fill="#287d99"/>
    <path id="Path_164" data-name="Path 164" d="M112.431,74.223A20.063,20.063,0,0,0,96.524,67.51a20.053,20.053,0,0,0,2.158,16.551l6.657,10.663a4.344,4.344,0,0,1-.892,5.633C91.992,110.765,76.062,122,67.73,125.41c-12.742,5.22-23.874-7.987-22.077-18.642l-3.6,3.207A20.106,20.106,0,1,0,68.57,140.2l42.217-37.6a20.105,20.105,0,0,0,1.644-28.386Z" transform="translate(-0.157 -46.755)" opacity="0.1"/>
    <path id="Path_165" data-name="Path 165" d="M251.793,30.754l14.968,23.977,34.109-21.294L285.9,9.461a20.105,20.105,0,0,0-27.7-6.408h0A20.105,20.105,0,0,0,251.793,30.754Z" transform="translate(-148.112 0)" fill="#76b7eb"/>
    <path id="Path_166" data-name="Path 166" d="M322.362,154.1l-14.968-23.977L341.5,108.829l14.968,23.977a20.105,20.105,0,0,1-6.408,27.7h0A20.105,20.105,0,0,1,322.362,154.1Z" transform="translate(-188.745 -75.392)" fill="#d1eff2"/>
    <path id="Path_167" data-name="Path 167" d="M309.431,91.86a20.266,20.266,0,0,0,2.531-1.868c-23.9-3.512-55.06-60.569-53.656-80.256-.035.021-.07.04-.1.062h0a20.105,20.105,0,0,0-6.408,27.7l29.936,47.953a20.106,20.106,0,0,0,27.7,6.408Z" transform="translate(-148.112 -6.745)" opacity="0.1"/>
    <path id="Path_168" data-name="Path 168" d="M140.1,269l24.479,10.14a1.769,1.769,0,0,0,2.312-.958l14.034-33.88a1.769,1.769,0,0,0-.958-2.312l-24.479-10.14a20.1,20.1,0,0,0-26.269,10.881h0A20.105,20.105,0,0,0,140.1,269Z" transform="translate(-64.249 -159.554)" fill="#f28b74"/>
    <path id="Path_169" data-name="Path 169" d="M166.889,290.574l3.456-8.344c-28.912-5.5-38.619-22.589-36.357-34.029a20.021,20.021,0,0,0-4.771,6.922h0A20.1,20.1,0,0,0,140.1,281.392l24.479,10.14A1.769,1.769,0,0,0,166.889,290.574Z" transform="translate(-64.249 -171.942)" opacity="0.1"/>
    <path id="Path_170" data-name="Path 170" d="M342.479,269,318,279.144a1.769,1.769,0,0,1-2.312-.958l-14.034-33.88a1.769,1.769,0,0,1,.958-2.312l24.479-10.14a20.1,20.1,0,0,1,26.269,10.881h0A20.105,20.105,0,0,1,342.479,269Z" transform="translate(-184.676 -159.554)" fill="#76b7eb"/>
  </g>
</svg>
