<svg xmlns="http://www.w3.org/2000/svg" width="32" height="39.895" viewBox="0 0 32 39.895">
  <g id="placeholder" transform="translate(-47.2)">
    <g id="Group_80" data-name="Group 80" transform="translate(47.2)">
      <path id="Path_66" data-name="Path 66" d="M63.192,0A16.013,16.013,0,0,0,47.2,15.992a15.74,15.74,0,0,0,.284,3c.008.059.042.234.109.535a15.75,15.75,0,0,0,1.071,3.153c1.723,4.056,5.512,10.287,13.825,16.962a1.133,1.133,0,0,0,1.422,0c8.305-6.674,12.1-12.905,13.825-16.962a15.573,15.573,0,0,0,1.071-3.153c.067-.3.1-.477.109-.535a16.445,16.445,0,0,0,.284-3A16.038,16.038,0,0,0,63.192,0ZM76.674,18.6c0,.017-.008.033-.008.05-.008.042-.033.167-.075.36v.017a13.278,13.278,0,0,1-.928,2.727c-.008.008-.008.025-.017.033-1.564,3.705-4.993,9.359-12.454,15.523C55.731,31.147,52.3,25.493,50.738,21.788c-.008-.008-.008-.025-.017-.033a14.164,14.164,0,0,1-.928-2.727v-.017c-.05-.192-.067-.318-.075-.36,0-.017-.008-.033-.008-.059a13.733,13.733,0,1,1,26.965.008Z" transform="translate(-47.2)" fill="#c9c9c9"/>
      <path id="Path_67" data-name="Path 67" d="M127.154,71.9a10.154,10.154,0,1,0,10.154,10.154A10.169,10.169,0,0,0,127.154,71.9Zm0,18.049a7.9,7.9,0,1,1,7.9-7.9A7.9,7.9,0,0,1,127.154,89.949Z" transform="translate(-111.162 -65.886)" fill="#c9c9c9"/>
    </g>
  </g>
</svg>
