<svg xmlns="http://www.w3.org/2000/svg" width="38.333" height="38.333" viewBox="0 0 38.333 38.333">
  <path id="service" d="M15.225,12.507l-2.047,2.046L15.3,16.672l2.043-2.043a6.4,6.4,0,0,0,1.907.788v2.852h2.995V15.4a6.4,6.4,0,0,0,1.851-.775l2.043,2.043,2.118-2.118-2.046-2.046a6.4,6.4,0,0,0,.774-1.876h2.9V7.637h-2.9A6.39,6.39,0,0,0,26.2,5.772l2.058-2.058L26.136,1.6,24.075,3.658a6.409,6.409,0,0,0-1.834-.764V0H19.247V2.881a6.392,6.392,0,0,0-1.889.777L15.3,1.6,13.179,3.715l2.058,2.058a6.4,6.4,0,0,0-.778,1.864H11.528v2.995h2.924a6.4,6.4,0,0,0,.774,1.876ZM17.9,7.172l.84-.84a3.44,3.44,0,0,1,5.407,2.514v.607A3.444,3.444,0,1,1,17.9,7.172Zm-3,18.291a1.2,1.2,0,0,0,.525.991,3.045,3.045,0,0,0,.864.438c.581.085,7.244.8,11.612,1.259l-.315,2.978c-3.4-.359-11.368-1.2-11.829-1.289a5.763,5.763,0,0,1-2.018-.91,4.2,4.2,0,0,1-.99-.947L12.729,28,5.543,20.943a1.5,1.5,0,1,0-2.1,2.137L14.558,33.987a4.693,4.693,0,0,0,3.307,1.352H38.335v2.995H17.866a7.673,7.673,0,0,1-5.4-2.209L1.348,25.218A4.492,4.492,0,0,1,7.64,18.806l4.76,4.671a4.2,4.2,0,0,1,3.692-2.207l10.358,0h.222l-.018,1.5.018-1.5a17.667,17.667,0,0,1,10.115,3.314l1.547,1.107V29.37l-3.29-2.354a14.683,14.683,0,0,0-8.408-2.755h-.185l-10.359,0a1.2,1.2,0,0,0-1.2,1.2Zm0,0" transform="translate(-0.002 0)" fill="#08c6f2"/>
</svg>
