<svg xmlns="http://www.w3.org/2000/svg" width="42.593" height="38.884" viewBox="0 0 42.593 38.884">
  <g id="Group_125" data-name="Group 125" transform="translate(-229 -127)">
    <g id="cart-of-ecommerce" transform="translate(231 130.103)">
      <path id="Path_26" data-name="Path 26" d="M35.679,24.37l4.8-14.363a1.393,1.393,0,0,0-.136-1.38,2.162,2.162,0,0,0-1.719-.708L11.5,7.914,10.779,4.48A1.908,1.908,0,0,0,8.842,2.9H1.22C.43,2.9,0,3.267,0,4.005V5.988c0,.714.428.9,1.248.9H7.683L12.608,27.8A4.766,4.766,0,0,0,15.9,35.728a5.024,5.024,0,0,0,4.457-3.562h9.592A4.7,4.7,0,0,0,34.4,35.781,4.613,4.613,0,0,0,38.9,31.158a4.318,4.318,0,0,0-4.469-4.646,4.368,4.368,0,0,0-3.383,1.663H19.258a3.734,3.734,0,0,0-3.205-1.789l-.164-.871H33.822C35.174,25.514,35.44,25.022,35.679,24.37Zm-1.244,5.044a1.69,1.69,0,1,1-1.691,1.69A1.69,1.69,0,0,1,34.436,29.414ZM17.568,31.1a1.709,1.709,0,1,1-1.707-1.711A1.711,1.711,0,0,1,17.568,31.1Z" transform="translate(0 0)" fill="#fecb00"/>
    </g>
    <g id="Ellipse_6" data-name="Ellipse 6" transform="translate(229 127)" fill="#fecb00" stroke="#fff" stroke-width="2">
      <circle cx="11" cy="11" r="11" stroke="none"/>
      <circle cx="11" cy="11" r="10" fill="none"/>
    </g>
  </g>
</svg>
