<svg xmlns="http://www.w3.org/2000/svg" width="152" height="138.688" viewBox="0 0 152 138.688">
  <g id="shopping-basket_2_" data-name="shopping-basket (2)" transform="translate(0 -22.419)">
    <path id="Path_138" data-name="Path 138" d="M195.231,103.634l-2.225,6.625a14.471,14.471,0,0,1-18.271,9.086l-5.4-1.813-37.706-12.654a14.474,14.474,0,0,1-9.089-18.271l2.225-6.625a14.474,14.474,0,0,1,18.271-9.089l43.105,14.47A14.471,14.471,0,0,1,195.231,103.634Z" transform="translate(-85.639 -33.559)" fill="#78b9eb"/>
    <path id="Path_139" data-name="Path 139" d="M172.3,116.527l-2.956,2.547-37.706-12.654a14.474,14.474,0,0,1-9.089-18.271l2.225-6.625a14.431,14.431,0,0,1,9.443-9.185Z" transform="translate(-85.64 -35.101)" fill="#5aaae7"/>
    <path id="Path_140" data-name="Path 140" d="M87.275,105.671,62.124,127.35l-3.8,3.272L11.976,76.851l3.8-3.276L40.928,51.9Z" transform="translate(-8.421 -20.727)" fill="#c70024"/>
    <path id="Path_141" data-name="Path 141" d="M96.278,105.671,71.127,127.35,24.78,73.576,49.931,51.9Z" transform="translate(-17.423 -20.727)" fill="#ff0c38"/>
    <path id="Path_142" data-name="Path 142" d="M35.157,46.658,6.417,71.428a3.5,3.5,0,0,1-4.923-.366l-.651-.756a3.5,3.5,0,0,1,.366-4.923l2.274-1.961,26.463-22.81a3.5,3.5,0,0,1,4.883.319.607.607,0,0,1,.043.046l.648.756A3.5,3.5,0,0,1,35.157,46.658Z" transform="translate(0 -12.2)" fill="#a5001e"/>
    <path id="Path_143" data-name="Path 143" d="M43.073,40.934,16.607,63.744a3.5,3.5,0,0,1-4.88-.319L38.19,40.615A3.5,3.5,0,0,1,43.073,40.934Z" transform="translate(-8.246 -12.201)" fill="#c70024"/>
    <circle id="Ellipse_10" data-name="Ellipse 10" cx="13.527" cy="13.527" r="13.527" transform="translate(24.779 53.75)" fill="#a5001e"/>
    <path id="Path_144" data-name="Path 144" d="M114.64,152.505l-2.318-1.823.765-3.144a2.3,2.3,0,0,0-4.478-1.09l-.516,2.12a12.973,12.973,0,0,0-3.032-.372c-2.963,0-7.07,1.112-9.81,6.407a2.305,2.305,0,0,0,.681,2.915,11.6,11.6,0,0,0,6.384,2.086c2.332,0,5.458-.862,8.068-4.582l1.406,1.106a2.3,2.3,0,0,0,2.85-3.623Zm-12.324,2.489a5.806,5.806,0,0,1-1.633-.25,5.642,5.642,0,0,1,4.378-1.94,7.824,7.824,0,0,1,1.157.089A4.981,4.981,0,0,1,102.316,154.994Z" transform="translate(-66.792 -85.97)" fill="#ffcd00"/>
    <path id="Path_145" data-name="Path 145" d="M306.5,36.175,274.834,22.84a5.324,5.324,0,0,0-6.972,2.841l-4.4,10.458h0l-12.95,10.346a11.354,11.354,0,0,0-1.238,1.148,11.632,11.632,0,0,0-2.227,3.433L236.462,76.2a7.862,7.862,0,0,0,4.2,10.3l7.461,3.141h0l36.666,15.436a7.864,7.864,0,0,0,10.3-4.2l10.589-25.152a11.651,11.651,0,0,0,.859-5.638L304.942,53.6l4.4-10.457A5.325,5.325,0,0,0,306.5,36.175Z" transform="translate(-165.828 -0.002)" fill="#ff728b"/>
    <path id="Path_146" data-name="Path 146" d="M313.854,152.228l-36.666-15.436,13.632-32.38a11.652,11.652,0,0,1,3.465-4.581l12.952-10.346,26.774,11.272,1.589,16.484a11.648,11.648,0,0,1-.859,5.638l-10.589,25.152A7.863,7.863,0,0,1,313.854,152.228Z" transform="translate(-194.898 -47.156)" fill="#ff3f62"/>
    <path id="Path_147" data-name="Path 147" d="M304.942,86.093,292.224,96.614a11.358,11.358,0,0,0-1.158,1.1,11.562,11.562,0,0,0-2.152,3.35l-13.673,32.477-34.583-14.56a7.862,7.862,0,0,1-4.2-10.3l10.581-25.133a11.632,11.632,0,0,1,2.227-3.433,11.292,11.292,0,0,1,1.238-1.148l12.95-10.345Z" transform="translate(-165.828 -32.491)" fill="#ff728b"/>
    <path id="Path_148" data-name="Path 148" d="M302.318,124.94a11.563,11.563,0,0,0-2.152,3.35L293.678,143.7l-41.83-17.61,6.448-15.315a11.633,11.633,0,0,1,2.227-3.433Z" transform="translate(-177.081 -59.713)" fill="#ffa5b5"/>
    <path id="Path_149" data-name="Path 149" d="M399.842,143.938l-1.592-16.482-12.715,10.521a11.265,11.265,0,0,0-1.158,1.1,11.594,11.594,0,0,0-2.154,3.352l-13.671,32.477,9.541,4.016a7.864,7.864,0,0,0,10.3-4.194l10.589-25.154A11.652,11.652,0,0,0,399.842,143.938Z" transform="translate(-259.138 -73.854)" fill="#ff0c38"/>
    <g id="Group_177" data-name="Group 177" transform="translate(70.016 36.136)">
      <path id="Path_150" data-name="Path 150" d="M326.949,156.821a3.782,3.782,0,0,1-5.03,3.743q-.086-.032-.171-.068c-.057-.024-.113-.049-.168-.075a3.782,3.782,0,0,1-.838-6.214l4.4-3.973a.938.938,0,0,1,1.565.659Z" transform="translate(-294.65 -125.835)" fill="#ff3f62"/>
      <path id="Path_151" data-name="Path 151" d="M271.882,72.169l-.135.329L258.8,82.844a11.252,11.252,0,0,0-1.238,1.149,11.651,11.651,0,0,0-2.225,3.432l-13.388,32.1-1.288-.541a7.86,7.86,0,0,1-4.194-10.3l10.58-25.133a11.644,11.644,0,0,1,2.228-3.432,11.253,11.253,0,0,1,1.238-1.149l12.949-10.343a0,0,0,0,1,0,0Z" transform="translate(-235.843 -68.623)" fill="#ff3f62"/>
    </g>
    <path id="Path_152" data-name="Path 152" d="M269.076,110.946c-.092.089-.178.181-.264.273a11.651,11.651,0,0,0-2.225,3.432l-6.259,15.008-8.478-3.568,6.447-15.315a11.643,11.643,0,0,1,2.228-3.432Z" transform="translate(-177.082 -59.713)" fill="#ff728b"/>
    <path id="Path_153" data-name="Path 153" d="M370.346,53.6,328.864,36.138l4.4-10.458a5.324,5.324,0,0,1,6.972-2.841l31.668,13.335a5.324,5.324,0,0,1,2.841,6.972Z" transform="translate(-231.233 -0.001)" fill="#ff3f62"/>
    <path id="Path_154" data-name="Path 154" d="M343.611,24.257l-6.321,15.426-8.423-3.546,4.4-10.457a5.329,5.329,0,0,1,6.975-2.842Z" transform="translate(-231.235)" fill="#ff0c38"/>
    <path id="Path_155" data-name="Path 155" d="M163.248,238.124,141.287,305.64a6.994,6.994,0,0,1-6.649,4.83H56.659a6.994,6.994,0,0,1-6.64-4.8l-22.33-67.546Z" transform="translate(-19.468 -151.667)" fill="#00a1c7"/>
    <path id="Path_156" data-name="Path 156" d="M194.411,238.124,172.45,305.64a6.994,6.994,0,0,1-6.649,4.83H100.977a6.994,6.994,0,0,1-6.64-4.8L72.009,238.124Z" transform="translate(-50.631 -151.667)" fill="#16d1fc"/>
    <path id="Path_157" data-name="Path 157" d="M159.657,231.311a2.3,2.3,0,0,0-1.865-.95H35.514a2.3,2.3,0,1,0,0,4.609h119.1l-8.307,25.54H132.689l3.725-17.5a2.3,2.3,0,0,0-4.508-.96l-3.929,18.459H112.45l1.574-17.776a2.3,2.3,0,1,0-4.591-.406l-1.61,18.182H92.318V242.531a2.3,2.3,0,0,0-4.609,0V260.51H72.716l-1.61-18.182a2.3,2.3,0,1,0-4.591.406l1.574,17.776H65.269a2.3,2.3,0,1,0,0,4.609H68.5l1.451,16.4H57.033l-3.49-16.4h2.507a2.3,2.3,0,1,0,0-4.609H52.563l-3.929-18.459a2.3,2.3,0,0,0-4.508.96l3.725,17.5H33.866l-8.443-25.54H26.3a2.3,2.3,0,0,0,0-4.609H22.235a2.3,2.3,0,0,0-2.188,3.028l22.328,67.548a9.283,9.283,0,0,0,8.828,6.38h77.979a9.275,9.275,0,0,0,8.842-6.422l6.841-21.035a2.3,2.3,0,1,0-4.383-1.425l-1,3.081H128.218l3.49-16.4h13.1l-1.479,4.548a2.3,2.3,0,1,0,4.383,1.426l12.267-37.715A2.306,2.306,0,0,0,159.657,231.311Zm-52.241,33.808-1.451,16.4H92.318v-16.4Zm1.3,37.588,1.468-16.583h12.342l-3.53,16.583Zm-4.627,0H92.318V286.124h13.238Zm-27.636,0-1.468-16.583H87.709v16.583Zm-3.327-37.588H87.709v16.4H74.576Zm-2.767,21,1.468,16.583H61.544l-3.53-16.583Zm-21.525-21,3.49,16.4H40.809l-5.419-16.4Zm-2.08,34.37-4.418-13.366H53.3l3.53,16.583H51.2A4.68,4.68,0,0,1,46.751,299.49Zm91.23-13.366-4.34,13.344a4.677,4.677,0,0,1-4.459,3.238h-5.474l3.53-16.583h10.743Zm-14.475-4.609H110.591l1.451-16.4H127Z" transform="translate(-14.013 -146.209)" fill="#00a7ce"/>
    <path id="Path_158" data-name="Path 158" d="M152,214.756a9.894,9.894,0,0,1-9.867,9.864H9.867a9.865,9.865,0,0,1,0-19.731H142.133a9.9,9.9,0,0,1,9.851,9.317C151.994,214.387,152,214.571,152,214.756Z" transform="translate(0 -128.299)" fill="#00819f"/>
    <path id="Path_159" data-name="Path 159" d="M175.361,214.2H43.1a9.9,9.9,0,0,1-9.848-9.317H165.51A9.9,9.9,0,0,1,175.361,214.2Z" transform="translate(-23.377 -128.298)" fill="#08c6f2"/>
    <path id="Path_160" data-name="Path 160" d="M246.842,52.407V99.253a6.692,6.692,0,1,1-13.385,0V52.407a6.684,6.684,0,0,1,11.418-4.723q.1.1.2.212A6.653,6.653,0,0,1,246.842,52.407Z" transform="translate(-164.149 -16.382)" fill="#09a3c7"/>
    <path id="Path_161" data-name="Path 161" d="M270.181,57.567v46.845a6.66,6.66,0,0,1-1.764,4.514,6.649,6.649,0,0,1-1.767-4.514V57.567a6.64,6.64,0,0,1,1.767-4.511A6.653,6.653,0,0,1,270.181,57.567Z" transform="translate(-187.488 -21.542)" fill="#08c6f2"/>
    <circle id="Ellipse_11" data-name="Ellipse 11" cx="1.987" cy="1.987" r="1.987" transform="translate(74.013 81.068)" fill="#a4e276"/>
  </g>
</svg>
