<svg xmlns="http://www.w3.org/2000/svg" width="34" height="27.625" viewBox="0 0 34 27.625">
  <path id="twitter_1_" data-name="twitter (1)" d="M34,51.27a14.532,14.532,0,0,1-4.016,1.1,6.931,6.931,0,0,0,3.066-3.853,13.93,13.93,0,0,1-4.42,1.687,6.97,6.97,0,0,0-12.057,4.766,7.177,7.177,0,0,0,.162,1.59A19.729,19.729,0,0,1,2.367,49.271a6.972,6.972,0,0,0,2.142,9.316,6.884,6.884,0,0,1-3.149-.859V57.8a7,7,0,0,0,5.585,6.849,6.957,6.957,0,0,1-1.828.229,6.163,6.163,0,0,1-1.32-.119A7.037,7.037,0,0,0,10.31,69.62a14.006,14.006,0,0,1-8.642,2.973A13.056,13.056,0,0,1,0,72.5a19.623,19.623,0,0,0,10.693,3.128C23.519,75.625,30.532,65,30.532,55.79c0-.308-.011-.606-.026-.9A13.905,13.905,0,0,0,34,51.27Z" transform="translate(0 -48)" fill="#fff"/>
</svg>
