<svg xmlns="http://www.w3.org/2000/svg" width="36.5" height="36.5" viewBox="0 0 36.5 36.5">
  <g id="Group_39" data-name="Group 39" transform="translate(-1743.5 -14)">
    <rect id="Rectangle_8" data-name="Rectangle 8" width="36.5" height="36.5" rx="18.25" transform="translate(1743.5 14)" fill="#fff" opacity="0.15"/>
    <g id="twitter" transform="translate(1751.5 24)">
      <g id="Group_38" data-name="Group 38" transform="translate(0 0)">
        <path id="Path_39" data-name="Path 39" d="M19.887,49.913a8.5,8.5,0,0,1-2.349.644A4.054,4.054,0,0,0,19.332,48.3a8.148,8.148,0,0,1-2.585.987,4.077,4.077,0,0,0-7.053,2.788,4.2,4.2,0,0,0,.094.93,11.54,11.54,0,0,1-8.4-4.265,4.078,4.078,0,0,0,1.253,5.449A4.026,4.026,0,0,1,.8,53.69v.045a4.1,4.1,0,0,0,3.266,4.006,4.069,4.069,0,0,1-1.069.134,3.6,3.6,0,0,1-.772-.07,4.116,4.116,0,0,0,3.81,2.84A8.192,8.192,0,0,1,.976,62.385,7.638,7.638,0,0,1,0,62.329a11.478,11.478,0,0,0,6.255,1.83,11.524,11.524,0,0,0,11.6-11.6c0-.18-.006-.354-.015-.527A8.134,8.134,0,0,0,19.887,49.913Z" transform="translate(0 -48)" fill="#08c6f2"/>
      </g>
    </g>
  </g>
</svg>
