<svg xmlns="http://www.w3.org/2000/svg" width="60" height="73.143" viewBox="0 0 60 73.143">
  <g id="worker" transform="translate(-46)">
    <g id="Group_143" data-name="Group 143" transform="translate(88.857 61.286)">
      <g id="Group_142" data-name="Group 142" transform="translate(0)">
        <path id="Path_122" data-name="Path 122" d="M347.429,429a1.429,1.429,0,1,0,1.429,1.429A1.429,1.429,0,0,0,347.429,429Z" transform="translate(-346 -429)" fill="#fff"/>
      </g>
    </g>
    <g id="Group_145" data-name="Group 145" transform="translate(60.286 61.286)">
      <g id="Group_144" data-name="Group 144">
        <path id="Path_123" data-name="Path 123" d="M147.429,429a1.429,1.429,0,1,0,1.429,1.429A1.429,1.429,0,0,0,147.429,429Z" transform="translate(-146 -429)" fill="#fff"/>
      </g>
    </g>
    <g id="Group_147" data-name="Group 147" transform="translate(46)">
      <g id="Group_146" data-name="Group 146" transform="translate(0)">
        <path id="Path_124" data-name="Path 124" d="M103.378,53.887a16.144,16.144,0,0,0-6.407-5.744,1.421,1.421,0,0,0-.811-.373,14.944,14.944,0,0,0-5.874-1.2H86V42.8a16.387,16.387,0,0,0,5.128-8.088h.587a5.711,5.711,0,0,0,4.2-9.587c.09-.076.178-.156.262-.24A4.284,4.284,0,0,0,94.522,17.8,15.768,15.768,0,0,0,83.059,3.858,4.545,4.545,0,0,0,78.857,0H73.143a4.545,4.545,0,0,0-4.2,3.858A15.768,15.768,0,0,0,57.478,17.8a4.283,4.283,0,0,0-1.388,7.327,5.71,5.71,0,0,0,4.2,9.588h.583a16.421,16.421,0,0,0,4,7.019c.359.374.739.73,1.133,1.068v3.77H61.714a14.946,14.946,0,0,0-5.874,1.2,1.422,1.422,0,0,0-.811.373A16.368,16.368,0,0,0,46,62.714v9a1.429,1.429,0,0,0,1.429,1.429h57.143A1.429,1.429,0,0,0,106,71.714v-9A16.242,16.242,0,0,0,103.378,53.887Zm-48.806,16.4H48.857V62.714a13.647,13.647,0,0,1,5.714-10.983ZM91.714,31.857h-.065c.043-.475.065-.952.065-1.429V26.143a2.857,2.857,0,1,1,0,5.714ZM68.857,6.877v6.409a1.429,1.429,0,1,0,2.857,0V4.714c0-.885.748-1.857,1.429-1.857h5.714c.681,0,1.429.972,1.429,1.857v8.571a1.429,1.429,0,0,0,2.857,0V6.877a12.914,12.914,0,0,1,8.492,10.694H60.366A12.914,12.914,0,0,1,68.857,6.877Zm-8.571,24.98a2.857,2.857,0,1,1,0-5.714v4.286c0,.476.023.953.065,1.429Zm0-8.571H58.857a1.429,1.429,0,0,1,0-2.857H93.143a1.429,1.429,0,0,1,0,2.857H60.286Zm3.117,9.74c0-.016-.006-.031-.009-.046a13.176,13.176,0,0,1-.251-2.551V26.143H88.857v4.286a13.181,13.181,0,0,1-.251,2.551c0,.015-.006.031-.009.047a13.533,13.533,0,0,1-4.978,8.034,12.265,12.265,0,0,1-15.241,0,13.239,13.239,0,0,1-1.449-1.3A13.547,13.547,0,0,1,63.4,33.026Zm11.169,37.26H63.143V67a1.429,1.429,0,0,0-2.857,0v3.286H57.429V50.211a12.091,12.091,0,0,1,2.857-.7v8.915a1.429,1.429,0,0,0,2.857,0v-9h3.674l7.755,8.143ZM68.857,47.429V44.768a15.045,15.045,0,0,0,14.286,0v2.661L76,54.929ZM94.571,70.286H91.714V67a1.429,1.429,0,0,0-2.857,0v3.286H77.429V57.571l7.755-8.143h3.674v9a1.429,1.429,0,0,0,2.857,0V49.513a12.094,12.094,0,0,1,2.857.7Zm8.571,0H97.429V51.732a13.647,13.647,0,0,1,5.714,10.983Z" transform="translate(-46)" fill="#fff"/>
      </g>
    </g>
  </g>
</svg>
